<svg width="98" height="52" viewBox="0 0 98 52" fill="none" xmlns="http://www.w3.org/2000/svg">
<path d="M18.3605 20.2059L9.89704 18.8304L9.50658 21.2329L17.0964 22.4664C17.6424 22.5551 18.0083 23.063 17.9239 23.5817C17.8396 24.1004 17.3318 24.4662 16.7858 24.3775L9.19598 23.144L8.80552 25.5465L17.269 26.922C17.7877 27.0063 18.1535 27.5141 18.0692 28.0329C17.9849 28.5516 17.4771 28.9174 16.9584 28.8331L7.34826 27.2713C6.69302 27.1648 6.2586 26.5617 6.36065 25.9338L7.70066 17.6888C7.80271 17.0608 8.40574 16.6264 9.06098 16.7329L18.6711 18.2948C19.1898 18.3791 19.5601 18.8596 19.4714 19.4056C19.387 19.9243 18.8792 20.2902 18.3605 20.2059ZM23.9421 30.8649C23.2868 30.7584 22.8524 30.1553 22.9589 29.5001L23.6156 25.4595L20.6397 24.9758C20.121 24.8915 19.7552 24.3837 19.8395 23.865C19.9282 23.319 20.436 22.9531 20.9548 23.0374L23.9306 23.5211L24.4897 20.0811C24.5962 19.4259 25.1992 18.9914 25.8545 19.0979C26.4824 19.2 26.9441 19.8074 26.8376 20.4627L25.3068 29.8817C25.2003 30.5369 24.57 30.9669 23.9421 30.8649ZM10.4398 30.4919L20.2683 32.0893C23.4353 32.604 24.5952 34.9502 24.1781 37.5166C23.7566 40.1102 21.9178 41.9411 18.7508 41.4264L8.92226 39.829C5.75529 39.3143 4.59093 36.9953 5.01245 34.4017C5.42954 31.8354 7.27278 29.9772 10.4398 30.4919ZM21.8575 37.1394C22.1015 35.6378 21.7278 34.3161 19.3253 33.9256L10.7527 32.5324C8.35012 32.1419 7.60442 33.2817 7.36038 34.7833C7.1119 36.3122 7.45826 37.6295 9.86079 38.02L18.4335 39.4132C20.836 39.8037 21.609 38.6683 21.8575 37.1394Z" fill="#464F67"/>
<path d="M34.9394 41.8788C36.5627 41.8788 37.8788 40.5628 37.8788 38.9394C37.8788 37.316 36.5627 36 34.9394 36C33.316 36 32 37.316 32 38.9394C32 40.5628 33.316 41.8788 34.9394 41.8788Z" fill="#464F67"/>
<path d="M44.9394 47.8788C46.5627 47.8788 47.8788 46.5628 47.8788 44.9394C47.8788 43.316 46.5627 42 44.9394 42C43.316 42 42 43.316 42 44.9394C42 46.5628 43.316 47.8788 44.9394 47.8788Z" fill="#464F67"/>
<path d="M83.1825 36.0723H67.7236V51.5311H83.1825V36.0723Z" fill="#464F67"/>
<path d="M97.9993 21.2539H83.1846V36.0686H97.9993V21.2539Z" fill="#464F67"/>
<path d="M76.2414 10.6212L65.6201 0L54.9992 10.6209L65.6204 21.2422L76.2414 10.6212Z" fill="#464F67"/>
</svg>
