<svg width="28" height="28" viewBox="0 0 28 28" fill="none" xmlns="http://www.w3.org/2000/svg">
<mask id="mask0_2110_18629" style="mask-type:luminance" maskUnits="userSpaceOnUse" x="1" y="1" width="26" height="26">
<path d="M14.0006 26.9759C21.1629 26.9759 26.9691 21.1697 26.9691 14.0075C26.9691 6.84522 21.1629 1.03906 14.0006 1.03906C6.83839 1.03906 1.03223 6.84522 1.03223 14.0075C1.03223 21.1697 6.83839 26.9759 14.0006 26.9759Z" fill="white"/>
</mask>
<g mask="url(#mask0_2110_18629)">
<path d="M3.09473 1.03906V16.9549H8.90104L14 8.11275H26.9684V1.03906H3.09473Z" fill="#DB4437"/>
<path d="M3.09473 1.03906V16.9549H8.90104L14 8.11275H26.9684V1.03906H3.09473Z" fill="url(#paint0_linear_2110_18629)"/>
<path d="M1.03223 26.9779H13.3817L19.1291 21.2306V16.9569H8.87223L1.03223 3.47266V26.9779Z" fill="#0F9D58"/>
<path d="M1.03223 26.9779H13.3817L19.1291 21.2306V16.9569H8.87223L1.03223 3.47266V26.9779Z" fill="url(#paint1_linear_2110_18629)"/>
<path d="M13.9996 8.11328L19.0986 16.9554L13.4102 26.9764H26.9681V8.11328H13.9996Z" fill="#FFCD40"/>
<path d="M13.9996 8.11328L19.0986 16.9554L13.4102 26.9764H26.9681V8.11328H13.9996Z" fill="url(#paint2_linear_2110_18629)"/>
<path d="M9.03563 16.9101L3.09668 6.99219L8.84405 16.9838L9.03563 16.9101Z" fill="#3E2723" fill-opacity="0.1"/>
<path d="M18.9839 17.1488L18.866 17.0898L13.3691 26.9635L19.0134 17.0898L18.9839 17.1488Z" fill="#263238" fill-opacity="0.1"/>
<path d="M14.002 8.11328V11.208L25.5556 8.11328H14.002Z" fill="url(#paint3_radial_2110_18629)"/>
<path d="M3.09473 7.00781L11.5242 15.4373L8.90104 16.9552L3.09473 7.00781Z" fill="url(#paint4_radial_2110_18629)"/>
<path d="M13.3809 26.9764L16.4756 15.4375L19.0988 16.9554L13.3809 26.9764Z" fill="url(#paint5_radial_2110_18629)"/>
<path d="M14.0002 19.9028C17.2558 19.9028 19.8949 17.2636 19.8949 14.008C19.8949 10.7524 17.2558 8.11328 14.0002 8.11328C10.7446 8.11328 8.10547 10.7524 8.10547 14.008C8.10547 17.2636 10.7446 19.9028 14.0002 19.9028Z" fill="#F1F1F1"/>
<path d="M14.0009 18.7206C16.6054 18.7206 18.7167 16.6093 18.7167 14.0049C18.7167 11.4004 16.6054 9.28906 14.0009 9.28906C11.3965 9.28906 9.28516 11.4004 9.28516 14.0049C9.28516 16.6093 11.3965 18.7206 14.0009 18.7206Z" fill="#4285F4"/>
<path d="M14.0006 26.9759C21.1629 26.9759 26.9691 21.1697 26.9691 14.0075C26.9691 6.84522 21.1629 1.03906 14.0006 1.03906C6.83839 1.03906 1.03223 6.84522 1.03223 14.0075C1.03223 21.1697 6.83839 26.9759 14.0006 26.9759Z" fill="url(#paint6_radial_2110_18629)"/>
<path d="M19.0996 16.9579C18.5814 17.8512 17.8377 18.5927 16.9428 19.1081C16.0479 19.6236 15.0333 19.8949 14.0006 19.8949C12.968 19.8949 11.9534 19.6236 11.0585 19.1081C10.1636 18.5927 9.41988 17.8512 8.9017 16.9579L1.03223 3.62109L8.9017 17.1053C9.41988 17.9986 10.1636 18.7401 11.0585 19.2555C11.9534 19.7709 12.968 20.0422 14.0006 20.0422C15.0333 20.0422 16.0479 19.7709 16.9428 19.2555C17.8377 18.7401 18.5814 17.9986 19.0996 17.1053V16.9579Z" fill="white" fill-opacity="0.1"/>
<path d="M14.148 8.11719H14.0743C15.6377 8.11719 17.1371 8.73824 18.2425 9.84372C19.348 10.9492 19.9691 12.4485 19.9691 14.0119C19.9691 15.5753 19.348 17.0747 18.2425 18.1801C17.1371 19.2856 15.6377 19.9067 14.0743 19.9067H14.148C17.3901 19.9067 20.0428 17.254 20.0428 14.0119C20.0428 10.7698 17.3901 8.11719 14.148 8.11719ZM14.0006 26.833C17.4274 26.833 20.7148 25.4768 23.1448 23.0607C25.5747 20.6446 26.9496 17.3649 26.9691 13.9382V14.0119C26.9691 17.4514 25.6028 20.7499 23.1707 23.182C20.7387 25.614 17.4401 26.9803 14.0006 26.9803C10.5612 26.9803 7.26264 25.614 4.83059 23.182C2.39854 20.7499 1.03223 17.4514 1.03223 14.0119V13.9382C1.0517 17.3649 2.4266 20.6446 4.85654 23.0607C7.28649 25.4768 10.5739 26.833 14.0006 26.833Z" fill="#3E2723" fill-opacity="0.1"/>
<path d="M19.1585 17.1503C19.5701 16.4442 19.8275 15.6589 19.9139 14.8461C20.0002 14.0333 19.9136 13.2114 19.6596 12.4345C19.8887 13.1858 19.9573 13.9768 19.8608 14.7562C19.7643 15.5357 19.505 16.2861 19.0996 16.9588L13.5585 26.9798L19.188 17.1798L19.1585 17.1503ZM14.0006 1.19034C17.4274 1.19028 20.7148 2.54647 23.1448 4.96261C25.5747 7.37875 26.9496 10.6584 26.9691 14.0851V14.0114C26.9691 10.572 25.6028 7.27338 23.1707 4.84133C20.7387 2.40928 17.4401 1.04297 14.0006 1.04297C10.5612 1.04297 7.26264 2.40928 4.83059 4.84133C2.39854 7.27338 1.03223 10.572 1.03223 14.0114V14.0851C1.0517 10.6584 2.4266 7.37875 4.85654 4.96261C7.28649 2.54647 10.5739 1.19028 14.0006 1.19034Z" fill="white" fill-opacity="0.2"/>
<path d="M14.0002 7.96875C10.7581 7.96875 8.10547 10.6214 8.10547 13.8635V14.0109C8.10547 10.7688 10.7581 8.11612 14.0002 8.11612H26.9686V7.96875H14.0002Z" fill="#3E2723" fill-opacity="0.2"/>
</g>
<defs>
<linearGradient id="paint0_linear_2110_18629" x1="4.17052" y1="11.0601" x2="11.9074" y2="6.55064" gradientUnits="userSpaceOnUse">
<stop stop-color="#A52714" stop-opacity="0.6"/>
<stop offset="0.7" stop-color="#A52714" stop-opacity="0"/>
</linearGradient>
<linearGradient id="paint1_linear_2110_18629" x1="16.1964" y1="24.2516" x2="7.59012" y2="19.2116" gradientUnits="userSpaceOnUse">
<stop stop-color="#055524" stop-opacity="0.4"/>
<stop offset="0.3" stop-color="#055524" stop-opacity="0"/>
</linearGradient>
<linearGradient id="paint2_linear_2110_18629" x1="17.9638" y1="7.34697" x2="20.1302" y2="16.8228" gradientUnits="userSpaceOnUse">
<stop stop-color="#EA6100" stop-opacity="0.3"/>
<stop offset="0.7" stop-color="#EA6100" stop-opacity="0"/>
</linearGradient>
<radialGradient id="paint3_radial_2110_18629" cx="0" cy="0" r="1" gradientUnits="userSpaceOnUse" gradientTransform="translate(13.442 8.11328) scale(12.3937)">
<stop stop-color="#3E2723" stop-opacity="0.2"/>
<stop offset="1" stop-color="#3E2723" stop-opacity="0"/>
</radialGradient>
<radialGradient id="paint4_radial_2110_18629" cx="0" cy="0" r="1" gradientUnits="userSpaceOnUse" gradientTransform="translate(3.07999 7.00781) scale(11.4947)">
<stop stop-color="#3E2723" stop-opacity="0.2"/>
<stop offset="1" stop-color="#3E2723" stop-opacity="0"/>
</radialGradient>
<radialGradient id="paint5_radial_2110_18629" cx="0" cy="0" r="1" gradientUnits="userSpaceOnUse" gradientTransform="translate(13.9703 14.0228) scale(12.9537)">
<stop stop-color="#263238" stop-opacity="0.2"/>
<stop offset="1" stop-color="#263238" stop-opacity="0"/>
</radialGradient>
<radialGradient id="paint6_radial_2110_18629" cx="0" cy="0" r="1" gradientUnits="userSpaceOnUse" gradientTransform="translate(4.90802 4.5759) scale(26.0547)">
<stop stop-color="white" stop-opacity="0.1"/>
<stop offset="1" stop-color="white" stop-opacity="0"/>
</radialGradient>
</defs>
</svg>
