<svg width="20" height="20" viewBox="0 0 20 20" fill="none" xmlns="http://www.w3.org/2000/svg">
<rect x="3" y="3" width="14" height="14" rx="2" fill="#FF005C"/>
<path d="M13.2843 12.7163C13.3588 12.7912 13.4006 12.8925 13.4006 12.9981C13.4006 13.1038 13.3588 13.2051 13.2843 13.28C13.2473 13.3178 13.2031 13.3479 13.1543 13.3685C13.1056 13.3891 13.0532 13.3998 13.0003 13.4C12.9474 13.3998 12.895 13.3891 12.8463 13.3685C12.7975 13.3479 12.7534 13.3178 12.7163 13.28L10.2003 10.765L7.68432 13.28C7.64727 13.3178 7.60309 13.3479 7.55434 13.3685C7.50559 13.3891 7.45324 13.3998 7.40032 13.4C7.34739 13.3998 7.29504 13.3891 7.24629 13.3685C7.19754 13.3479 7.15336 13.3178 7.11632 13.28C7.04182 13.2051 7 13.1038 7 12.9981C7 12.8925 7.04182 12.7912 7.11632 12.7163L9.63632 10.2012L7.11632 7.68207C7.04182 7.60715 7 7.50581 7 7.40018C7 7.29454 7.04182 7.1932 7.11632 7.11828C7.1535 7.0808 7.19774 7.05105 7.24649 7.03075C7.29523 7.01045 7.34751 7 7.40032 7C7.45312 7 7.5054 7.01045 7.55415 7.03075C7.60289 7.05105 7.64713 7.0808 7.68432 7.11828L10.2003 9.63337L12.7163 7.11828C12.7535 7.0808 12.7977 7.05105 12.8465 7.03075C12.8952 7.01045 12.9475 7 13.0003 7C13.0531 7 13.1054 7.01045 13.1541 7.03075C13.2029 7.05105 13.2471 7.0808 13.2843 7.11828C13.3588 7.1932 13.4006 7.29454 13.4006 7.40018C13.4006 7.50581 13.3588 7.60715 13.2843 7.68207L10.7683 10.2012L13.2843 12.7163Z" fill="white"/>
</svg>
