<svg width="20" height="20" viewBox="0 0 20 20" fill="none" xmlns="http://www.w3.org/2000/svg">
<mask id="mask0_500_26017" style="mask-type:alpha" maskUnits="userSpaceOnUse" x="0" y="0" width="20" height="20">
<rect width="20" height="20" fill="#D9D9D9"/>
</mask>
<g mask="url(#mask0_500_26017)">
<path d="M9.99583 12.7501C9.89583 12.7501 9.80208 12.7327 9.71458 12.698C9.62708 12.6633 9.5486 12.6112 9.47916 12.5417L5.52787 8.59046C5.3704 8.43298 5.29513 8.25355 5.30208 8.05216C5.30902 7.85078 5.38888 7.67369 5.54166 7.52091C5.69444 7.36814 5.87152 7.29175 6.07291 7.29175C6.2743 7.29175 6.45138 7.36814 6.60416 7.52091L9.99999 10.9376L13.4167 7.52091C13.5694 7.36814 13.7465 7.29522 13.9479 7.30216C14.1493 7.30911 14.3264 7.38897 14.4792 7.54175C14.6319 7.69453 14.7083 7.87161 14.7083 8.073C14.7083 8.27439 14.6296 8.45343 14.4721 8.61012L10.5208 12.5417C10.4458 12.6112 10.3646 12.6633 10.2771 12.698C10.1896 12.7327 10.0958 12.7501 9.99583 12.7501Z" fill="#9BA1B4"/>
</g>
</svg>
