<svg width="52" height="21" viewBox="0 0 52 21" fill="none" xmlns="http://www.w3.org/2000/svg">
<rect width="52" height="21" rx="4" fill="#35BCB3"/>
<path d="M10.4551 12.2461L11.2754 13.3066C11.5605 13.0332 11.7812 12.6816 11.9375 12.252C12.0938 11.8223 12.1738 11.3242 12.1777 10.7578C12.1777 10.0859 12.0684 9.51172 11.8496 9.03516C11.6309 8.55469 11.3281 8.19141 10.9414 7.94531C10.5586 7.69922 10.123 7.57812 9.63477 7.58203C9.14258 7.57812 8.70312 7.69922 8.31641 7.94531C7.93359 8.19141 7.63086 8.55469 7.4082 9.03516C7.18945 9.51172 7.08008 10.0859 7.08008 10.7578C7.08008 11.4258 7.18945 12 7.4082 12.4805C7.62695 12.957 7.92773 13.3184 8.31055 13.5645C8.69336 13.8105 9.13086 13.9336 9.62305 13.9336C9.90039 13.9336 10.1582 13.8965 10.3965 13.8223L9.18945 12.2461H10.4551ZM5.80273 10.7578C5.80273 9.87109 5.9668 9.09961 6.29492 8.44336C6.62305 7.7832 7.07617 7.27734 7.6543 6.92578C8.23633 6.57422 8.89648 6.39844 9.63477 6.39844C10.3652 6.39844 11.0195 6.57422 11.5977 6.92578C12.1797 7.27734 12.6348 7.7832 12.9629 8.44336C13.291 9.09961 13.4551 9.87109 13.4551 10.7578C13.4551 11.5234 13.3301 12.207 13.0801 12.8086C12.834 13.4062 12.4863 13.8945 12.0371 14.2734L13.1855 15.7617H11.8613L11.1465 14.8242C10.6855 15.0195 10.1816 15.1172 9.63477 15.1172C8.89648 15.1172 8.23633 14.9414 7.6543 14.5898C7.07617 14.2344 6.62305 13.7285 6.29492 13.0723C5.9668 12.4121 5.80273 11.6406 5.80273 10.7578ZM18.5457 8.63672H19.7879V15H18.5691V13.8984H18.4988C18.3465 14.2539 18.1062 14.541 17.7781 14.7598C17.4539 14.9746 17.0613 15.082 16.6004 15.082C16.1863 15.082 15.8211 14.9902 15.5047 14.8066C15.1883 14.623 14.9422 14.3516 14.7664 13.9922C14.5906 13.6289 14.5027 13.1914 14.5027 12.6797V8.63672H15.7566V12.5273C15.7566 12.8125 15.8113 13.0625 15.9207 13.2773C16.0301 13.4922 16.1805 13.6582 16.3719 13.7754C16.5672 13.8887 16.7918 13.9453 17.0457 13.9453C17.2918 13.9453 17.5301 13.8867 17.7605 13.7695C17.991 13.6484 18.1785 13.4688 18.323 13.2305C18.4715 12.9883 18.5457 12.6953 18.5457 12.3516V8.63672ZM23.7535 15.1289C23.1363 15.1289 22.5992 14.9941 22.1422 14.7246C21.6852 14.4551 21.3355 14.0742 21.0934 13.582C20.8512 13.0898 20.7301 12.5156 20.7301 11.8594C20.7301 11.2109 20.8512 10.6367 21.0934 10.1367C21.3355 9.63672 21.6793 9.24805 22.1246 8.9707C22.5699 8.69336 23.0855 8.55469 23.6715 8.55469C24.1832 8.55469 24.652 8.66602 25.0777 8.88867C25.5035 9.11133 25.8453 9.46289 26.1031 9.94336C26.3648 10.4199 26.4957 11.0234 26.4957 11.7539V12.1992H21.9723C21.984 12.5977 22.066 12.9395 22.2184 13.2246C22.3707 13.5098 22.5797 13.7266 22.8453 13.875C23.1109 14.0234 23.4176 14.0977 23.7652 14.0977C24.1012 14.0977 24.3863 14.0352 24.6207 13.9102C24.859 13.7812 25.0348 13.6133 25.148 13.4062H26.4137C26.3199 13.75 26.152 14.0527 25.9098 14.3145C25.6676 14.5723 25.3629 14.7734 24.9957 14.918C24.6285 15.0586 24.2145 15.1289 23.7535 15.1289ZM25.2652 11.2617C25.2652 10.9414 25.1988 10.6543 25.066 10.4004C24.9371 10.1426 24.7516 9.94336 24.5094 9.80273C24.2711 9.6582 23.9957 9.58594 23.6832 9.58594C23.359 9.58594 23.0699 9.66211 22.816 9.81445C22.566 9.96289 22.3687 10.166 22.2242 10.4238C22.0797 10.6816 21.9977 10.9609 21.9781 11.2617H25.2652ZM31.4809 8.63672H32.723V15H31.5043V13.8984H31.434C31.2816 14.2539 31.0414 14.541 30.7133 14.7598C30.3891 14.9746 29.9965 15.082 29.5355 15.082C29.1215 15.082 28.7563 14.9902 28.4398 14.8066C28.1234 14.623 27.8773 14.3516 27.7016 13.9922C27.5258 13.6289 27.4379 13.1914 27.4379 12.6797V8.63672H28.6918V12.5273C28.6918 12.8125 28.7465 13.0625 28.8559 13.2773C28.9652 13.4922 29.1156 13.6582 29.307 13.7754C29.5023 13.8887 29.727 13.9453 29.9809 13.9453C30.227 13.9453 30.4652 13.8867 30.6957 13.7695C30.9262 13.6484 31.1137 13.4688 31.2582 13.2305C31.4066 12.9883 31.4809 12.6953 31.4809 12.3516V8.63672ZM36.6887 15.1289C36.0715 15.1289 35.5344 14.9941 35.0773 14.7246C34.6203 14.4551 34.2707 14.0742 34.0285 13.582C33.7863 13.0898 33.6652 12.5156 33.6652 11.8594C33.6652 11.2109 33.7863 10.6367 34.0285 10.1367C34.2707 9.63672 34.6145 9.24805 35.0598 8.9707C35.5051 8.69336 36.0207 8.55469 36.6066 8.55469C37.1184 8.55469 37.5871 8.66602 38.0129 8.88867C38.4387 9.11133 38.7805 9.46289 39.0383 9.94336C39.3 10.4199 39.4309 11.0234 39.4309 11.7539V12.1992H34.9074C34.9191 12.5977 35.0012 12.9395 35.1535 13.2246C35.3059 13.5098 35.5148 13.7266 35.7805 13.875C36.0461 14.0234 36.3527 14.0977 36.7004 14.0977C37.0363 14.0977 37.3215 14.0352 37.5559 13.9102C37.7941 13.7812 37.9699 13.6133 38.0832 13.4062H39.3488C39.2551 13.75 39.0871 14.0527 38.8449 14.3145C38.6027 14.5723 38.298 14.7734 37.9309 14.918C37.5637 15.0586 37.1496 15.1289 36.6887 15.1289ZM38.2004 11.2617C38.2004 10.9414 38.134 10.6543 38.0012 10.4004C37.8723 10.1426 37.6867 9.94336 37.4445 9.80273C37.2062 9.6582 36.9309 9.58594 36.6184 9.58594C36.2941 9.58594 36.0051 9.66211 35.7512 9.81445C35.5012 9.96289 35.3039 10.166 35.1594 10.4238C35.0148 10.6816 34.9328 10.9609 34.9133 11.2617H38.2004ZM42.752 15.1289C42.2402 15.125 41.7832 14.9922 41.3809 14.7305C40.9785 14.4648 40.6621 14.084 40.4316 13.5879C40.2051 13.0879 40.0918 12.5039 40.0918 11.8359C40.0918 11.1602 40.207 10.5762 40.4375 10.084C40.668 9.58789 40.9844 9.20898 41.3867 8.94727C41.793 8.68555 42.252 8.55469 42.7637 8.55469C43.127 8.55469 43.4297 8.61523 43.6719 8.73633C43.918 8.85352 44.1055 8.99023 44.2344 9.14648C44.3672 9.29883 44.4902 9.47266 44.6035 9.66797H44.6621V6.51562H45.916V15H44.6973V14.0039H44.6035C44.4941 14.1953 44.3691 14.3711 44.2285 14.5312C44.0918 14.6875 43.9004 14.8262 43.6543 14.9473C43.4082 15.0684 43.1074 15.1289 42.752 15.1289ZM41.3691 11.8125C41.3652 12.2461 41.4277 12.6328 41.5566 12.9727C41.6855 13.3086 41.875 13.5742 42.125 13.7695C42.375 13.9648 42.6777 14.0625 43.0332 14.0625C43.3809 14.0625 43.6797 13.9688 43.9297 13.7812C44.1797 13.5938 44.3691 13.3301 44.498 12.9902C44.6309 12.6504 44.6973 12.2578 44.6973 11.8125C44.6973 11.3672 44.6328 10.9805 44.5039 10.6523C44.375 10.3242 44.1855 10.0703 43.9355 9.89062C43.6855 9.71094 43.3848 9.62109 43.0332 9.62109C42.6738 9.62109 42.3691 9.71484 42.1191 9.90234C41.8691 10.0898 41.6797 10.3496 41.5508 10.6816C41.4258 11.0098 41.3652 11.3867 41.3691 11.8125Z" fill="white"/>
</svg>
