<svg width="74" height="21" viewBox="0 0 74 21" fill="none" xmlns="http://www.w3.org/2000/svg">
<path d="M6.93343 5.86887H9.21416V16.3965H6.93343V12.9298H2.26249V16.3965H0V5.86887H2.00704V3.60645H6.89693V5.86887H2.26249V10.6492H6.93343V5.86887Z" fill="#A39CFF"/>
<path d="M38.5123 16.4349H36.2227V3.55273H38.5123V8.19424C38.5123 8.38136 38.5658 8.47046 38.6727 8.47046C38.7707 8.47046 38.8241 8.43478 38.9578 8.25658C39.6082 7.4459 40.4545 7.02718 41.6305 7.02718C43.6975 7.02718 44.9447 8.40802 44.9447 10.7867V16.4349H42.6639V11.152C42.6639 9.7978 42.0493 9.04954 40.9178 9.04954C40.1694 9.04954 39.5547 9.35242 39.1537 9.89582C38.7262 10.4571 38.5123 11.2678 38.5123 12.319V16.4349ZM50.1875 16.7289C47.9869 16.7289 46.7307 15.348 46.7307 12.9694V7.32117H49.0204V12.5685C49.0204 13.9493 49.644 14.7066 50.8111 14.7066C51.5862 14.7066 52.1653 14.4394 52.5483 13.8959C52.9315 13.3524 53.1275 12.5952 53.1275 11.6152V7.32117H55.4083V16.4349H53.7333C53.7244 16.1855 53.6799 15.7935 53.6353 15.5707C53.5729 15.2946 53.5017 15.1966 53.3324 15.1966C53.2165 15.1966 53.1453 15.2501 52.9938 15.4282C52.2901 16.2923 51.4258 16.7289 50.1875 16.7289ZM62.8782 16.7289C61.622 16.7289 60.6153 16.3013 59.8402 15.4371C59.6888 15.2589 59.5997 15.2055 59.4839 15.2055C59.3325 15.2055 59.2612 15.3034 59.2166 15.5441C59.1543 15.7935 59.1186 16.0875 59.1098 16.4349H57.4169V3.55273H59.7066V7.93587C59.7066 8.11406 59.76 8.20316 59.867 8.20316C59.9471 8.20316 59.9917 8.1764 60.0987 8.07839C60.7312 7.4459 61.6755 7.045 62.8159 7.045C63.68 7.045 64.4729 7.24991 65.1768 7.66858C65.8806 8.08731 66.433 8.66639 66.8339 9.40583C67.2347 10.1453 67.4308 10.9649 67.4308 11.8824C67.4308 12.8001 67.2347 13.6197 66.8428 14.3591C66.4419 15.0986 65.8984 15.6777 65.2125 16.0964C64.5175 16.524 63.7425 16.7289 62.8782 16.7289ZM62.3794 14.7689C63.9741 14.7689 65.0877 13.5929 65.0877 11.8824C65.0877 10.181 63.9741 9.00494 62.3794 9.00494C61.622 9.00494 60.9895 9.24548 60.4907 9.72655C59.9561 10.2344 59.6443 10.9917 59.6443 11.8824C59.6443 12.7734 59.9561 13.5396 60.4907 14.0473C60.9895 14.5284 61.622 14.7689 62.3794 14.7689Z" fill="#A39CFF"/>
<path d="M12.4018 3.58887V16.4711H10.6377V3.58887H12.4018ZM19.0433 20.4622C16.5486 20.4622 14.8292 19.0546 14.4016 17.1125H16.1745C16.5041 18.2885 17.6089 19.0012 19.0699 19.0012C20.8518 19.0012 21.814 18.0746 21.814 16.3375V15.2506C21.814 15.0902 21.7605 15.01 21.6536 15.01C21.5912 15.01 21.5199 15.0545 21.4398 15.1526C20.7627 15.892 19.747 16.284 18.5711 16.284C16.8605 16.284 15.435 15.4554 14.66 14.0746C14.2679 13.3885 14.072 12.6135 14.072 11.7494C14.072 9.96753 14.9095 8.50659 16.2547 7.72255C16.9229 7.33058 17.6713 7.13459 18.482 7.13459C19.7738 7.13459 20.736 7.57112 21.5467 8.45307C21.7517 8.65803 21.7962 8.69361 21.9031 8.69361C22.0367 8.69361 22.099 8.59569 22.1347 8.34623C22.1704 8.0611 22.2149 7.67805 22.2238 7.41968H23.5335V16.3018C23.5335 18.8853 21.7694 20.4622 19.0433 20.4622ZM18.874 14.8318C19.7204 14.8318 20.4508 14.5467 20.9587 14.039C21.5289 13.4955 21.8585 12.6848 21.8585 11.7494C21.8585 10.8139 21.5378 10.0121 20.9587 9.45089C20.4508 8.94306 19.7204 8.65803 18.874 8.65803C17.1188 8.65803 15.8805 9.94088 15.8805 11.7494C15.8805 12.9342 16.415 13.9142 17.3238 14.4399C17.7781 14.6982 18.2949 14.8318 18.874 14.8318ZM30.0859 16.7562C29.1415 16.7562 28.2951 16.5513 27.5378 16.1325C26.7805 15.7227 26.1925 15.1526 25.7739 14.4131C25.3462 13.6826 25.1324 12.863 25.1324 11.9453C25.1324 11.0278 25.3462 10.2081 25.7739 9.46873C26.1925 8.7382 26.7805 8.16804 27.5378 7.74931C28.2951 7.33949 29.1415 7.13459 30.0859 7.13459C31.0302 7.13459 31.8766 7.33949 32.6339 7.74931C33.3911 8.16804 33.9791 8.7382 34.4068 9.46873C34.8343 10.1993 35.0482 11.0278 35.0482 11.9453C35.0482 13.7895 34.1395 15.3129 32.6339 16.1325C31.8766 16.5513 31.0302 16.7562 30.0859 16.7562ZM30.0859 15.2416C31.3241 15.2416 32.3131 14.6536 32.8477 13.6558C33.1061 13.157 33.2397 12.5869 33.2397 11.9453C33.2397 10.6625 32.6873 9.62908 31.7341 9.06784C31.2529 8.79162 30.7005 8.64911 30.0859 8.64911C28.2239 8.64911 26.9409 10.0121 26.9409 11.9453C26.9409 13.8786 28.2239 15.2416 30.0859 15.2416Z" fill="#A39CFF"/>
<path d="M71.7301 5.52734H69.3613V7.8961H71.7301V5.52734Z" fill="#A39CFF"/>
<path d="M74.0005 3.25684H71.7305V5.5269H74.0005V3.25684Z" fill="#A39CFF"/>
<path d="M70.6666 1.62749L69.0391 0L67.4116 1.62744L69.0391 3.25494L70.6666 1.62749Z" fill="#A39CFF"/>
</svg>
