<svg width="38" height="21" viewBox="0 0 38 21" fill="none" xmlns="http://www.w3.org/2000/svg">
<rect width="38" height="21" rx="4" fill="#464F67"/>
<path d="M5.94414 15V6.51562H8.78008C9.6082 6.51562 10.3211 6.68555 10.9187 7.02539C11.5203 7.36133 11.9793 7.84766 12.2957 8.48438C12.616 9.11719 12.7762 9.87109 12.7762 10.7461C12.7762 11.625 12.6141 12.3848 12.2898 13.0254C11.9695 13.6621 11.5047 14.1504 10.8953 14.4902C10.2859 14.8301 9.55352 15 8.69805 15H5.94414ZM8.62773 13.875C9.58086 13.8711 10.2977 13.6016 10.7781 13.0664C11.2586 12.5312 11.4988 11.7578 11.4988 10.7461C11.4988 9.73828 11.2605 8.96875 10.784 8.4375C10.3113 7.90625 9.61602 7.64062 8.69805 7.64062H7.2332V13.875H8.62773ZM16.5191 15.1289C15.9254 15.1289 15.402 14.9922 14.9488 14.7188C14.4996 14.4453 14.152 14.0625 13.9059 13.5703C13.6637 13.0742 13.5426 12.5 13.5426 11.8477C13.5426 11.1953 13.6637 10.6211 13.9059 10.125C14.152 9.625 14.4996 9.23828 14.9488 8.96484C15.402 8.69141 15.9254 8.55469 16.5191 8.55469C17.109 8.55469 17.6285 8.69141 18.0777 8.96484C18.527 9.23828 18.8727 9.625 19.1148 10.125C19.3609 10.6211 19.484 11.1953 19.484 11.8477C19.484 12.5 19.3609 13.0742 19.1148 13.5703C18.8727 14.0625 18.527 14.4453 18.0777 14.7188C17.6285 14.9922 17.109 15.1289 16.5191 15.1289ZM14.7965 11.8477C14.7965 12.2656 14.8609 12.6445 14.9898 12.9844C15.1187 13.3203 15.3121 13.5879 15.5699 13.7871C15.8277 13.9863 16.1441 14.0859 16.5191 14.0859C16.8863 14.0859 17.1969 13.9863 17.4508 13.7871C17.7086 13.5879 17.9 13.3203 18.025 12.9844C18.1539 12.6445 18.2184 12.2656 18.2184 11.8477C18.2184 11.4297 18.1539 11.0508 18.025 10.7109C17.9 10.3672 17.7086 10.0938 17.4508 9.89062C17.1969 9.6875 16.8863 9.58594 16.5191 9.58594C16.1441 9.58594 15.8277 9.6875 15.5699 9.89062C15.3121 10.0938 15.1187 10.3672 14.9898 10.7109C14.8609 11.0508 14.7965 11.4297 14.7965 11.8477ZM21.6684 15H20.4145V8.63672H21.6215V9.67969H21.6918C21.8441 9.32422 22.0785 9.04883 22.3949 8.85352C22.7152 8.6543 23.1059 8.55469 23.5668 8.55469C24.0043 8.55469 24.3852 8.64648 24.7094 8.83008C25.0375 9.01367 25.2895 9.28516 25.4652 9.64453C25.6449 10.0039 25.7348 10.4414 25.7348 10.957V15H24.4926V11.1094C24.4887 10.6445 24.3676 10.2832 24.1293 10.0254C23.8949 9.76367 23.5668 9.63281 23.1449 9.63281C22.8559 9.63281 22.6 9.69531 22.3773 9.82031C22.1547 9.94531 21.9809 10.1289 21.8559 10.3711C21.7309 10.6094 21.6684 10.8945 21.6684 11.2266V15ZM29.7004 15.1289C29.0832 15.1289 28.5461 14.9941 28.0891 14.7246C27.632 14.4551 27.2824 14.0742 27.0402 13.582C26.798 13.0898 26.677 12.5156 26.677 11.8594C26.677 11.2109 26.798 10.6367 27.0402 10.1367C27.2824 9.63672 27.6262 9.24805 28.0715 8.9707C28.5168 8.69336 29.0324 8.55469 29.6184 8.55469C30.1301 8.55469 30.5988 8.66602 31.0246 8.88867C31.4504 9.11133 31.7922 9.46289 32.05 9.94336C32.3117 10.4199 32.4426 11.0234 32.4426 11.7539V12.1992H27.9191C27.9309 12.5977 28.0129 12.9395 28.1652 13.2246C28.3176 13.5098 28.5266 13.7266 28.7922 13.875C29.0578 14.0234 29.3645 14.0977 29.7121 14.0977C30.048 14.0977 30.3332 14.0352 30.5676 13.9102C30.8059 13.7812 30.9816 13.6133 31.0949 13.4062H32.3605C32.2668 13.75 32.0988 14.0527 31.8566 14.3145C31.6145 14.5723 31.3098 14.7734 30.9426 14.918C30.5754 15.0586 30.1613 15.1289 29.7004 15.1289ZM31.2121 11.2617C31.2121 10.9414 31.1457 10.6543 31.0129 10.4004C30.884 10.1426 30.6984 9.94336 30.4562 9.80273C30.218 9.6582 29.9426 9.58594 29.6301 9.58594C29.3059 9.58594 29.0168 9.66211 28.7629 9.81445C28.5129 9.96289 28.3156 10.166 28.1711 10.4238C28.0266 10.6816 27.9445 10.9609 27.925 11.2617H31.2121Z" fill="white"/>
</svg>
