<svg width="57" height="21" viewBox="0 0 57 21" fill="none" xmlns="http://www.w3.org/2000/svg">
<rect width="57" height="21" rx="4" fill="#D3E65D"/>
<path d="M6.14766 6.51562H9.17109C9.81172 6.51562 10.3508 6.63477 10.7883 6.87305C11.2297 7.10742 11.5598 7.43164 11.7785 7.8457C12.0012 8.25977 12.1125 8.73438 12.1125 9.26953C12.1125 9.80078 12.0012 10.2754 11.7785 10.6934C11.5598 11.1074 11.2297 11.4336 10.7883 11.6719C10.3469 11.9062 9.80781 12.0234 9.17109 12.0234H7.43672V15H6.14766V6.51562ZM9.04219 10.9219C9.63984 10.9258 10.0832 10.7773 10.3723 10.4766C10.6652 10.1758 10.8117 9.77344 10.8117 9.26953C10.8117 8.76172 10.6652 8.36133 10.3723 8.06836C10.0832 7.77148 9.63984 7.62109 9.04219 7.61719H7.43672V10.9219H9.04219ZM13.0664 8.63672H14.2734V9.64453H14.3437C14.4609 9.30859 14.6641 9.04102 14.9531 8.8418C15.2461 8.64258 15.5762 8.54297 15.9434 8.54297C16.127 8.54297 16.3086 8.55078 16.4883 8.56641V9.76172C16.418 9.74609 16.3164 9.73047 16.1836 9.71484C16.0547 9.69922 15.9336 9.69141 15.8203 9.69141C15.5352 9.69141 15.2793 9.75391 15.0527 9.87891C14.8262 10 14.6465 10.1699 14.5137 10.3887C14.3848 10.6035 14.3203 10.8477 14.3203 11.1211V15H13.0664V8.63672ZM19.6102 15.1289C19.0164 15.1289 18.493 14.9922 18.0398 14.7188C17.5906 14.4453 17.243 14.0625 16.9969 13.5703C16.7547 13.0742 16.6336 12.5 16.6336 11.8477C16.6336 11.1953 16.7547 10.6211 16.9969 10.125C17.243 9.625 17.5906 9.23828 18.0398 8.96484C18.493 8.69141 19.0164 8.55469 19.6102 8.55469C20.2 8.55469 20.7195 8.69141 21.1687 8.96484C21.618 9.23828 21.9637 9.625 22.2059 10.125C22.452 10.6211 22.575 11.1953 22.575 11.8477C22.575 12.5 22.452 13.0742 22.2059 13.5703C21.9637 14.0625 21.618 14.4453 21.1687 14.7188C20.7195 14.9922 20.2 15.1289 19.6102 15.1289ZM17.8875 11.8477C17.8875 12.2656 17.952 12.6445 18.0809 12.9844C18.2098 13.3203 18.4031 13.5879 18.6609 13.7871C18.9187 13.9863 19.2352 14.0859 19.6102 14.0859C19.9773 14.0859 20.2879 13.9863 20.5418 13.7871C20.7996 13.5879 20.991 13.3203 21.116 12.9844C21.2449 12.6445 21.3094 12.2656 21.3094 11.8477C21.3094 11.4297 21.2449 11.0508 21.116 10.7109C20.991 10.3672 20.7996 10.0938 20.5418 9.89062C20.2879 9.6875 19.9773 9.58594 19.6102 9.58594C19.2352 9.58594 18.9187 9.6875 18.6609 9.89062C18.4031 10.0938 18.2098 10.3672 18.0809 10.7109C17.952 11.0508 17.8875 11.4297 17.8875 11.8477ZM26.1773 17.5195C25.6461 17.5195 25.1773 17.4434 24.7711 17.291C24.3648 17.1426 24.0426 16.9258 23.8043 16.6406C23.5699 16.3555 23.4352 16.0156 23.4 15.6211H24.6773C24.7359 15.9141 24.8941 16.1348 25.152 16.2832C25.4137 16.4355 25.7516 16.5117 26.1656 16.5117C26.6891 16.5117 27.0934 16.3965 27.3785 16.166C27.6676 15.9355 27.8141 15.5781 27.818 15.0938V13.8398H27.7359C27.5758 14.1328 27.3551 14.3848 27.0738 14.5957C26.7965 14.8027 26.4 14.9062 25.8844 14.9062C25.3766 14.9062 24.9215 14.7832 24.5191 14.5371C24.1168 14.291 23.8004 13.9316 23.5699 13.459C23.3395 12.9824 23.2242 12.4141 23.2242 11.7539C23.2242 11.0938 23.3395 10.5234 23.5699 10.043C23.8004 9.55859 24.1168 9.18945 24.5191 8.93555C24.9254 8.68164 25.3844 8.55469 25.8961 8.55469C26.2594 8.55469 26.5621 8.61523 26.8043 8.73633C27.0504 8.85352 27.2398 8.99023 27.3727 9.14648C27.5055 9.29883 27.6305 9.47266 27.7477 9.66797H27.8297V8.63672H29.0484V15.1406C29.0484 15.668 28.9254 16.1094 28.6793 16.4648C28.4371 16.8203 28.0992 17.084 27.6656 17.2559C27.2359 17.4316 26.7398 17.5195 26.1773 17.5195ZM24.5016 11.7773C24.4977 12.418 24.6402 12.9277 24.9293 13.3066C25.2184 13.6816 25.6305 13.8711 26.1656 13.875C26.6969 13.8711 27.107 13.6855 27.3961 13.3184C27.6852 12.9512 27.8297 12.4375 27.8297 11.7773C27.8297 11.3438 27.7652 10.9648 27.6363 10.6406C27.5074 10.3164 27.318 10.0664 27.068 9.89062C26.818 9.71094 26.5172 9.62109 26.1656 9.62109C25.8062 9.62109 25.5016 9.71484 25.2516 9.90234C25.0016 10.0859 24.8121 10.3418 24.6832 10.6699C24.5582 10.9941 24.4977 11.3633 24.5016 11.7773ZM30.2719 8.63672H31.4789V9.64453H31.5492C31.6664 9.30859 31.8695 9.04102 32.1586 8.8418C32.4516 8.64258 32.7816 8.54297 33.1488 8.54297C33.3324 8.54297 33.5141 8.55078 33.6937 8.56641V9.76172C33.6234 9.74609 33.5219 9.73047 33.3891 9.71484C33.2602 9.69922 33.1391 9.69141 33.0258 9.69141C32.7406 9.69141 32.4848 9.75391 32.2582 9.87891C32.0316 10 31.852 10.1699 31.7191 10.3887C31.5902 10.6035 31.5258 10.8477 31.5258 11.1211V15H30.2719V8.63672ZM36.8625 15.1289C36.2453 15.1289 35.7082 14.9941 35.2512 14.7246C34.7941 14.4551 34.4445 14.0742 34.2023 13.582C33.9602 13.0898 33.8391 12.5156 33.8391 11.8594C33.8391 11.2109 33.9602 10.6367 34.2023 10.1367C34.4445 9.63672 34.7883 9.24805 35.2336 8.9707C35.6789 8.69336 36.1945 8.55469 36.7805 8.55469C37.2922 8.55469 37.7609 8.66602 38.1867 8.88867C38.6125 9.11133 38.9543 9.46289 39.2121 9.94336C39.4738 10.4199 39.6047 11.0234 39.6047 11.7539V12.1992H35.0812C35.093 12.5977 35.175 12.9395 35.3273 13.2246C35.4797 13.5098 35.6887 13.7266 35.9543 13.875C36.2199 14.0234 36.5266 14.0977 36.8742 14.0977C37.2102 14.0977 37.4953 14.0352 37.7297 13.9102C37.968 13.7812 38.1437 13.6133 38.257 13.4062H39.5227C39.4289 13.75 39.2609 14.0527 39.0187 14.3145C38.7766 14.5723 38.4719 14.7734 38.1047 14.918C37.7375 15.0586 37.3234 15.1289 36.8625 15.1289ZM38.3742 11.2617C38.3742 10.9414 38.3078 10.6543 38.175 10.4004C38.0461 10.1426 37.8605 9.94336 37.6184 9.80273C37.3801 9.6582 37.1047 9.58594 36.7922 9.58594C36.468 9.58594 36.1789 9.66211 35.925 9.81445C35.675 9.96289 35.4777 10.166 35.3332 10.4238C35.1887 10.6816 35.1066 10.9609 35.0871 11.2617H38.3742ZM44.1211 10.3711C44.0625 10.1094 43.9297 9.90625 43.7227 9.76172C43.5195 9.61328 43.25 9.53906 42.9141 9.53906C42.6797 9.53906 42.4707 9.57617 42.2871 9.65039C42.1035 9.72461 41.959 9.82617 41.8535 9.95508C41.748 10.084 41.6953 10.2285 41.6953 10.3887C41.6953 10.5801 41.7734 10.7441 41.9297 10.8809C42.0898 11.0176 42.3438 11.125 42.6914 11.2031L43.6992 11.4375C44.2852 11.5703 44.7207 11.7793 45.0059 12.0645C45.2949 12.3457 45.4414 12.7109 45.4453 13.1602C45.4414 13.543 45.334 13.8848 45.123 14.1855C44.916 14.4824 44.6172 14.7148 44.2266 14.8828C43.8359 15.0469 43.375 15.1289 42.8438 15.1289C42.0859 15.1289 41.4844 14.9688 41.0391 14.6484C40.5938 14.3242 40.332 13.8633 40.2539 13.2656H41.5312C41.6445 13.8359 42.0703 14.1211 42.8086 14.1211C43.2227 14.1211 43.5508 14.0449 43.793 13.8926C44.0391 13.7363 44.1641 13.5234 44.168 13.2539C44.1641 13.0469 44.082 12.877 43.9219 12.7441C43.7656 12.6074 43.5195 12.5 43.1836 12.4219L42.1875 12.2109C41.6172 12.0859 41.1836 11.875 40.8867 11.5781C40.5898 11.2773 40.4414 10.9062 40.4414 10.4648C40.4414 10.0898 40.543 9.75781 40.7461 9.46875C40.9531 9.17969 41.2422 8.95508 41.6133 8.79492C41.9883 8.63477 42.418 8.55469 42.9023 8.55469C43.3672 8.55469 43.7754 8.62891 44.127 8.77734C44.4785 8.92578 44.7559 9.13672 44.959 9.41016C45.1621 9.68359 45.2852 10.0039 45.3281 10.3711H44.1211ZM49.9383 10.3711C49.8797 10.1094 49.7469 9.90625 49.5398 9.76172C49.3367 9.61328 49.0672 9.53906 48.7313 9.53906C48.4969 9.53906 48.2879 9.57617 48.1043 9.65039C47.9207 9.72461 47.7762 9.82617 47.6707 9.95508C47.5652 10.084 47.5125 10.2285 47.5125 10.3887C47.5125 10.5801 47.5906 10.7441 47.7469 10.8809C47.907 11.0176 48.1609 11.125 48.5086 11.2031L49.5164 11.4375C50.1023 11.5703 50.5379 11.7793 50.823 12.0645C51.1121 12.3457 51.2586 12.7109 51.2625 13.1602C51.2586 13.543 51.1512 13.8848 50.9402 14.1855C50.7332 14.4824 50.4344 14.7148 50.0438 14.8828C49.6531 15.0469 49.1922 15.1289 48.6609 15.1289C47.9031 15.1289 47.3016 14.9688 46.8563 14.6484C46.4109 14.3242 46.1492 13.8633 46.0711 13.2656H47.3484C47.4617 13.8359 47.8875 14.1211 48.6258 14.1211C49.0398 14.1211 49.368 14.0449 49.6102 13.8926C49.8563 13.7363 49.9813 13.5234 49.9852 13.2539C49.9813 13.0469 49.8992 12.877 49.7391 12.7441C49.5828 12.6074 49.3367 12.5 49.0008 12.4219L48.0047 12.2109C47.4344 12.0859 47.0008 11.875 46.7039 11.5781C46.407 11.2773 46.2586 10.9062 46.2586 10.4648C46.2586 10.0898 46.3602 9.75781 46.5633 9.46875C46.7703 9.17969 47.0594 8.95508 47.4305 8.79492C47.8055 8.63477 48.2352 8.55469 48.7195 8.55469C49.1844 8.55469 49.5926 8.62891 49.9441 8.77734C50.2957 8.92578 50.573 9.13672 50.7762 9.41016C50.9793 9.68359 51.1023 10.0039 51.1453 10.3711H49.9383Z" fill="white"/>
</svg>
