<svg width="16" height="16" viewBox="0 0 16 16" xmlns="http://www.w3.org/2000/svg">
<path fill-rule="evenodd" clip-rule="evenodd" d="M8.28704 3.64571L2.35282 9.57993L1.54343 12.5988L1.01104 14.5875C0.996249 14.6431 0.996323 14.7016 1.01125 14.7571C1.02618 14.8126 1.05544 14.8633 1.09609 14.9039C1.13675 14.9446 1.18737 14.9738 1.2429 14.9887C1.29842 15.0037 1.3569 15.0038 1.41246 14.989L3.39992 14.4559L6.41941 13.6465H6.42007L12.3543 7.71231L8.28769 3.64571H8.28704ZM14.808 4.3333L11.6674 1.192C11.6066 1.13114 11.5344 1.08285 11.455 1.0499C11.3755 1.01696 11.2904 1 11.2044 1C11.1184 1 11.0332 1.01696 10.9538 1.0499C10.8743 1.08285 10.8022 1.13114 10.7414 1.192L9.12066 2.81209L13.1879 6.87934L14.808 5.2586C14.8689 5.19784 14.9172 5.12567 14.9501 5.04623C14.983 4.96678 15 4.88163 15 4.79562C15 4.70962 14.983 4.62446 14.9501 4.54502C14.9172 4.46557 14.8689 4.39341 14.808 4.33265" fill="currentColor"/>
</svg>
