<svg width="28" height="28" viewBox="0 0 28 28" fill="none" xmlns="http://www.w3.org/2000/svg">
<path d="M26.0266 9.09578C25.459 7.73003 24.3086 6.25555 23.406 5.78906C24.1411 7.22984 24.5663 8.67605 24.7288 9.75473C24.7288 9.75147 24.7299 9.75745 24.731 9.76669L24.7332 9.78083C25.9663 13.1229 25.2943 16.5215 24.3265 18.5984C22.8292 21.8116 19.205 25.1047 13.5305 24.9432C7.39983 24.7703 1.99882 20.2224 0.990816 14.2635C0.807049 13.3241 0.990816 12.8472 1.08324 12.0844C0.9707 12.6716 0.927748 12.8423 0.871205 13.8868L0.870117 13.9536C0.870117 21.1684 6.72021 27.0185 13.9361 27.0185C20.3989 27.0185 25.7646 22.3265 26.8161 16.1648L26.8759 15.6608C27.1352 13.4208 26.8471 11.065 26.0277 9.09578H26.0266Z" fill="black"/>
<path d="M13.9611 11.4468C13.9393 11.7719 12.7921 12.893 12.3898 12.893C8.67424 12.893 8.07129 15.14 8.07129 15.14C8.23603 17.0321 9.55339 18.5914 11.1486 19.4162C11.2214 19.4542 11.2954 19.4868 11.3688 19.5211C11.4952 19.5771 11.6232 19.6295 11.7526 19.6782C12.2997 19.8719 12.8728 19.9824 13.4527 20.0061C19.965 20.3116 21.2275 12.2204 16.5273 9.87169C17.7305 9.66237 18.9793 10.1463 19.6774 10.6367C18.5357 8.64023 16.4017 7.29297 13.9524 7.29297C13.7974 7.29297 13.6457 7.30602 13.4935 7.31635C12.1828 7.40651 10.9297 7.88945 9.89754 8.70221C10.0965 8.87076 10.3216 9.09584 10.7946 9.56287C11.6808 10.436 13.9551 11.3407 13.96 11.4468H13.9611Z" fill="black"/>
<path d="M26.0266 9.09904C25.459 7.73329 24.3086 6.25881 23.406 5.79232C24.1411 7.2331 24.5663 8.67931 24.7288 9.75799L24.7316 9.77974C23.2538 6.09733 20.749 4.61197 18.7031 1.37865L18.3954 0.878457C18.344 0.790254 18.2959 0.700117 18.2513 0.608243C18.1664 0.444246 18.1009 0.270907 18.0561 0.0917385C18.0565 0.0831748 18.0536 0.0747947 18.0481 0.0682522C18.0425 0.0617096 18.0347 0.0574802 18.0262 0.0563986C18.0182 0.0541171 18.0098 0.0541171 18.0018 0.0563986L17.9952 0.0602045L17.986 0.0656414L17.9914 0.0580297C14.7092 1.98052 13.5957 5.53624 13.493 7.31628C12.1823 7.40629 10.9292 7.88904 9.89699 8.7016C9.78901 8.61033 9.67611 8.52502 9.55882 8.44607C9.26092 7.4042 9.24815 6.30147 9.52185 5.25298C8.18002 5.86409 7.13505 6.82968 6.3766 7.68327H6.37117C5.85303 7.02758 5.88946 4.86316 5.91882 4.41135C5.91338 4.38308 5.5328 4.60871 5.48278 4.64242C5.02563 4.96866 4.59825 5.33472 4.20565 5.73632C3.75899 6.18943 3.3509 6.67899 2.98561 7.19993L2.98507 7.20156V7.19993C2.14485 8.39049 1.5489 9.73575 1.23167 11.158L1.21427 11.245C1.16613 11.516 1.12317 11.7879 1.08542 12.0605L1.0827 12.0888C0.968259 12.6838 0.897391 13.2863 0.870661 13.8917L0.870117 13.9569C0.870117 21.1717 6.72021 27.0218 13.9361 27.0218C20.3989 27.0218 25.7646 22.3297 26.8161 16.1681L26.8759 15.6641C27.1352 13.4241 26.8471 11.0683 26.0277 9.09904H26.0266ZM10.9664 19.3258C11.0279 19.3547 11.086 19.3867 11.148 19.415L11.1567 19.4204C11.0928 19.3899 11.0294 19.3584 10.9664 19.3258ZM24.7321 9.78246L24.7305 9.76995L24.7326 9.78409L24.7321 9.78246Z" fill="url(#paint0_linear_2110_18667)"/>
<path d="M26.0266 9.09578C25.459 7.73003 24.3086 6.25555 23.406 5.78906C24.1411 7.22984 24.5663 8.67605 24.7288 9.75473C24.7288 9.75147 24.7299 9.75745 24.731 9.76669L24.7332 9.78083C25.9663 13.1229 25.2943 16.5215 24.3265 18.5984C22.8292 21.8116 19.205 25.1047 13.5305 24.9432C7.39983 24.7703 1.99882 20.2224 0.990816 14.2635C0.807049 13.3241 0.990816 12.8472 1.08324 12.0844C0.9707 12.6716 0.927748 12.8423 0.871205 13.8868L0.870117 13.9536C0.870117 21.1684 6.72021 27.0185 13.9361 27.0185C20.3989 27.0185 25.7646 22.3265 26.8161 16.1648L26.8759 15.6608C27.1352 13.4208 26.8471 11.065 26.0277 9.09578H26.0266Z" fill="url(#paint1_radial_2110_18667)"/>
<path d="M26.0266 9.09578C25.459 7.73003 24.3086 6.25555 23.406 5.78906C24.1411 7.22984 24.5663 8.67605 24.7288 9.75473C24.7288 9.75147 24.7299 9.75745 24.731 9.76669L24.7332 9.78083C25.9663 13.1229 25.2943 16.5215 24.3265 18.5984C22.8292 21.8116 19.205 25.1047 13.5305 24.9432C7.39983 24.7703 1.99882 20.2224 0.990816 14.2635C0.807049 13.3241 0.990816 12.8472 1.08324 12.0844C0.9707 12.6716 0.927748 12.8423 0.871205 13.8868L0.870117 13.9536C0.870117 21.1684 6.72021 27.0185 13.9361 27.0185C20.3989 27.0185 25.7646 22.3265 26.8161 16.1648L26.8759 15.6608C27.1352 13.4208 26.8471 11.065 26.0277 9.09578H26.0266Z" fill="url(#paint2_radial_2110_18667)"/>
<path d="M19.6767 10.6389L19.7582 10.6987C19.4303 10.1167 19.0219 9.58394 18.5452 9.11602C14.4833 5.0552 17.4791 0.310422 17.9847 0.069568L17.9901 0.0625C14.7079 1.98444 13.5944 5.54071 13.4922 7.31967C13.6444 7.30879 13.7967 7.29629 13.9511 7.29629C16.4004 7.29629 18.5344 8.64301 19.6761 10.64L19.6767 10.6389Z" fill="url(#paint3_radial_2110_18667)"/>
<path d="M13.9611 11.4468C13.9393 11.7719 12.7921 12.893 12.3898 12.893C8.67424 12.893 8.07129 15.14 8.07129 15.14C8.23603 17.0321 9.55339 18.5914 11.1486 19.4162C11.2214 19.4542 11.2954 19.4868 11.3688 19.5211C11.4952 19.5771 11.6232 19.6295 11.7526 19.6782C12.2997 19.8719 12.8728 19.9824 13.4527 20.0061C19.965 20.3116 21.2275 12.2204 16.5273 9.87169C17.7305 9.66237 18.9793 10.1463 19.6774 10.6367C18.5357 8.64023 16.4017 7.29297 13.9524 7.29297C13.7974 7.29297 13.6457 7.30602 13.4935 7.31635C12.1828 7.40651 10.9297 7.88945 9.89754 8.70221C10.0965 8.87076 10.3216 9.09584 10.7946 9.56287C11.6808 10.436 13.9551 11.3407 13.96 11.4468H13.9611Z" fill="url(#paint4_radial_2110_18667)"/>
<path d="M13.9611 11.4468C13.9393 11.7719 12.7921 12.893 12.3898 12.893C8.67424 12.893 8.07129 15.14 8.07129 15.14C8.23603 17.0321 9.55339 18.5914 11.1486 19.4162C11.2214 19.4542 11.2954 19.4868 11.3688 19.5211C11.4952 19.5771 11.6232 19.6295 11.7526 19.6782C12.2997 19.8719 12.8728 19.9824 13.4527 20.0061C19.965 20.3116 21.2275 12.2204 16.5273 9.87169C17.7305 9.66237 18.9793 10.1463 19.6774 10.6367C18.5357 8.64023 16.4017 7.29297 13.9524 7.29297C13.7974 7.29297 13.6457 7.30602 13.4935 7.31635C12.1828 7.40651 10.9297 7.88945 9.89754 8.70221C10.0965 8.87076 10.3216 9.09584 10.7946 9.56287C11.6808 10.436 13.9551 11.3407 13.96 11.4468H13.9611Z" fill="url(#paint5_radial_2110_18667)"/>
<path d="M9.28689 8.26421C9.37787 8.32291 9.46813 8.38272 9.55765 8.44363C9.25983 7.40154 9.24725 6.29861 9.52122 5.25C8.17831 5.86165 7.13442 6.8267 6.37598 7.68029C6.4385 7.67866 8.33326 7.64441 9.28689 8.26421Z" fill="url(#paint6_radial_2110_18667)"/>
<path d="M0.99019 14.2695C1.99873 20.2284 7.3992 24.7763 13.5293 24.9498C19.2038 25.1107 22.8286 21.817 24.3259 18.6049C25.2936 16.528 25.9656 13.1299 24.7326 9.78735V9.78626L24.7304 9.77321C24.7293 9.76397 24.7282 9.75799 24.7282 9.76125L24.7309 9.783C25.1947 12.8092 23.6544 15.7407 21.2486 17.723L21.2415 17.7393C16.5522 21.5577 12.0651 20.043 11.1561 19.4232C11.0922 19.3925 11.0288 19.3609 10.9658 19.3285C8.23213 18.0221 7.10289 15.5314 7.34483 13.3953C5.03687 13.3953 4.24961 11.4489 4.24961 11.4489C4.24961 11.4489 6.32215 9.97111 9.05365 11.2559C11.5834 12.4465 13.9594 11.4489 13.9594 11.4483C13.9539 11.3423 11.6802 10.4371 10.794 9.56443C10.3199 9.09686 10.0954 8.87286 9.89582 8.70377C9.78784 8.6125 9.67494 8.52719 9.55765 8.44824C9.46803 8.38748 9.37777 8.32767 9.28689 8.26882C8.3338 7.64902 6.43796 7.68381 6.37543 7.68544H6.37C5.85186 7.02921 5.88829 4.86478 5.91765 4.41243C5.91221 4.38525 5.53163 4.60979 5.48161 4.64404C5.02446 4.97029 4.59708 5.33635 4.20448 5.73795C3.75782 6.19105 3.34973 6.68062 2.98444 7.20156L2.9839 7.20319V7.20156C2.14368 8.39211 1.54773 9.73738 1.2305 11.1596C1.22506 11.1879 0.76021 13.2169 0.989103 14.2695H0.99019Z" fill="url(#paint7_radial_2110_18667)"/>
<path d="M18.5447 9.11263C19.0214 9.58039 19.4297 10.113 19.7577 10.6948L19.9534 10.8557C22.9165 13.585 21.3637 17.4452 21.2474 17.7203C23.6538 15.738 25.1935 12.8065 24.7297 9.78028C23.2531 6.09733 20.7483 4.61197 18.7024 1.37865L18.3947 0.878457C18.3432 0.790254 18.2951 0.700117 18.2506 0.608243C18.1657 0.444246 18.1002 0.270907 18.0554 0.0917385C18.0557 0.0831748 18.0528 0.0747947 18.0473 0.0682522C18.0418 0.0617096 18.034 0.0574802 18.0255 0.0563986C18.0175 0.0541171 18.009 0.0541171 18.001 0.0563986L17.9945 0.0602045L17.9853 0.0656414C17.4796 0.306496 14.4839 5.05127 18.5453 9.11263H18.5447Z" fill="url(#paint8_radial_2110_18667)"/>
<path d="M19.9536 10.8594C19.891 10.8028 19.8257 10.7492 19.7579 10.699L19.6763 10.6392C18.9788 10.1499 17.7299 9.66491 16.5262 9.87423C21.2258 12.2241 19.9639 20.3147 13.4516 20.0086C12.8717 19.9849 12.2986 19.8744 11.7515 19.6808C11.6221 19.632 11.4941 19.5796 11.3677 19.5236C11.2934 19.4905 11.22 19.4555 11.1475 19.4187L11.1562 19.4241C12.0641 20.0439 16.5517 21.5581 21.2416 17.7403L21.2487 17.724C21.3645 17.4489 22.9167 13.5887 19.9547 10.8594H19.9536Z" fill="url(#paint9_radial_2110_18667)"/>
<path d="M8.06996 15.1373C8.06996 15.1373 8.67346 12.8903 12.3885 12.8903C12.7908 12.8903 13.938 11.7692 13.9597 11.4441C13.9815 11.1189 11.5838 12.4423 9.05404 11.2516C6.32254 9.96686 4.25 11.4441 4.25 11.4441C4.25 11.4441 5.03726 13.3905 7.34522 13.3905C7.10328 15.5272 8.23252 18.0173 10.9662 19.3238C11.0276 19.3526 11.0847 19.3847 11.1478 19.4129C9.55206 18.5881 8.2347 17.0294 8.0705 15.1368L8.06996 15.1373Z" fill="url(#paint10_radial_2110_18667)"/>
<path d="M26.0266 9.09904C25.459 7.73329 24.3086 6.25881 23.406 5.79232C24.1411 7.2331 24.5663 8.67931 24.7288 9.75799L24.7316 9.77974C23.2538 6.09733 20.749 4.61197 18.7031 1.37865L18.3954 0.878457C18.344 0.790254 18.2959 0.700117 18.2513 0.608243C18.1664 0.444246 18.1009 0.270907 18.0561 0.0917385C18.0565 0.0831748 18.0536 0.0747947 18.0481 0.0682522C18.0425 0.0617096 18.0347 0.0574802 18.0262 0.0563986C18.0182 0.0541171 18.0098 0.0541171 18.0018 0.0563986L17.9952 0.0602045L17.986 0.0656414L17.9914 0.0580297C14.7092 1.98052 13.5957 5.53624 13.493 7.31628C13.6452 7.30541 13.7974 7.2929 13.9524 7.2929C16.4017 7.2929 18.5357 8.63962 19.6774 10.6355C18.9793 10.1462 17.731 9.66121 16.5267 9.87053C21.2264 12.2204 19.9645 20.311 13.4522 20.0049C12.8723 19.9813 12.2992 19.8707 11.7521 19.6771C11.6227 19.6283 11.4947 19.5759 11.3682 19.5199C11.294 19.4868 11.2205 19.4518 11.148 19.415L11.1573 19.4204C11.0934 19.3898 11.03 19.3582 10.967 19.3258C11.0279 19.3547 11.0855 19.3867 11.148 19.415C9.55229 18.5902 8.23493 17.0315 8.07074 15.1389C8.07074 15.1389 8.67315 12.8918 12.3887 12.8918C12.791 12.8918 13.9382 11.7707 13.96 11.4456C13.9545 11.3396 11.6819 10.4343 10.7946 9.56172C10.3216 9.09415 10.096 8.87015 9.89754 8.70106C9.78937 8.60977 9.6763 8.52446 9.55882 8.44553C9.2611 7.40361 9.24852 6.30088 9.52239 5.25244C8.17948 5.86354 7.13559 6.82914 6.37715 7.68273H6.37171C5.85357 7.0265 5.89 4.86261 5.91936 4.40972C5.91392 4.38253 5.53334 4.60708 5.48332 4.64133C5.02617 4.96757 4.5988 5.33364 4.2062 5.73523C3.75972 6.18836 3.35181 6.67793 2.9867 7.19885L2.98616 7.20048V7.19885C2.14594 8.3894 1.54999 9.73467 1.23276 11.1569L1.21536 11.2439C1.15985 11.5175 1.10964 11.7921 1.06476 12.0676C1.06367 12.0774 1.06585 12.0583 1.06476 12.0676C0.963802 12.6708 0.899348 13.2796 0.871748 13.8906L0.870117 13.9569C0.870117 21.1717 6.72021 27.0218 13.9361 27.0218C20.3989 27.0218 25.7646 22.3297 26.8161 16.1681L26.8759 15.6641C27.1352 13.4241 26.8471 11.0683 26.0277 9.09904H26.0266ZM24.7305 9.76995L24.7326 9.78409V9.783L24.7305 9.76995Z" fill="url(#paint11_linear_2110_18667)"/>
<defs>
<linearGradient id="paint0_linear_2110_18667" x1="1.17269e+06" y1="215265" x2="92195.6" y2="1.25758e+06" gradientUnits="userSpaceOnUse">
<stop offset="0.05" stop-color="#FFF44F"/>
<stop offset="0.37" stop-color="#FF980E"/>
<stop offset="0.53" stop-color="#FF3647"/>
<stop offset="0.7" stop-color="#E31587"/>
</linearGradient>
<radialGradient id="paint1_radial_2110_18667" cx="0" cy="0" r="1" gradientUnits="userSpaceOnUse" gradientTransform="translate(939762 -141032) scale(1.37631e+06 1.39944e+06)">
<stop offset="0.13" stop-color="#FFBD4F"/>
<stop offset="0.28" stop-color="#FF980E"/>
<stop offset="0.47" stop-color="#FF3750"/>
<stop offset="0.78" stop-color="#EB0878"/>
<stop offset="0.86" stop-color="#E50080"/>
</radialGradient>
<radialGradient id="paint2_radial_2110_18667" cx="0" cy="0" r="1" gradientUnits="userSpaceOnUse" gradientTransform="translate(540041 437332) scale(1.41072e+06 1.39944e+06)">
<stop offset="0.3" stop-color="#960E18"/>
<stop offset="0.35" stop-color="#B11927" stop-opacity="0.74"/>
<stop offset="0.43" stop-color="#DB293D" stop-opacity="0.34"/>
<stop offset="0.5" stop-color="#F5334B" stop-opacity="0.1"/>
<stop offset="0.53" stop-color="#FF3750" stop-opacity="0"/>
</radialGradient>
<radialGradient id="paint3_radial_2110_18667" cx="0" cy="0" r="1" gradientUnits="userSpaceOnUse" gradientTransform="translate(154909 -65731.7) scale(451780 766870)">
<stop offset="0.13" stop-color="#FFF44F"/>
<stop offset="0.53" stop-color="#FF980E"/>
</radialGradient>
<radialGradient id="paint4_radial_2110_18667" cx="0" cy="0" r="1" gradientUnits="userSpaceOnUse" gradientTransform="translate(136048 721402) scale(597716 655158)">
<stop offset="0.35" stop-color="#3A8EE6"/>
<stop offset="0.67" stop-color="#9059FF"/>
<stop offset="1" stop-color="#C139E6"/>
</radialGradient>
<radialGradient id="paint5_radial_2110_18667" cx="0" cy="0" r="1" gradientUnits="userSpaceOnUse" gradientTransform="translate(279738 216209) scale(317387 386543)">
<stop offset="0.21" stop-color="#9059FF" stop-opacity="0"/>
<stop offset="0.97" stop-color="#6E008B" stop-opacity="0.6"/>
</radialGradient>
<radialGradient id="paint6_radial_2110_18667" cx="0" cy="0" r="1" gradientUnits="userSpaceOnUse" gradientTransform="translate(344104 -164467) scale(475182 476969)">
<stop offset="0.1" stop-color="#FFE226"/>
<stop offset="0.79" stop-color="#FF7139"/>
</radialGradient>
<radialGradient id="paint7_radial_2110_18667" cx="0" cy="0" r="1" gradientUnits="userSpaceOnUse" gradientTransform="translate(1.05882e+06 -433809) scale(2.2689e+06 1.90455e+06)">
<stop offset="0.11" stop-color="#FFF44F"/>
<stop offset="0.46" stop-color="#FF980E"/>
<stop offset="0.72" stop-color="#FF3647"/>
<stop offset="0.9" stop-color="#E31587"/>
</radialGradient>
<radialGradient id="paint8_radial_2110_18667" cx="0" cy="0" r="1" gradientUnits="userSpaceOnUse" gradientTransform="translate(175543 24113.5) rotate(77.3945) scale(719704 3.11388e+06)">
<stop stop-color="#FFF44F"/>
<stop offset="0.3" stop-color="#FF980E"/>
<stop offset="0.57" stop-color="#FF3647"/>
<stop offset="0.74" stop-color="#E31587"/>
</radialGradient>
<radialGradient id="paint9_radial_2110_18667" cx="0" cy="0" r="1" gradientUnits="userSpaceOnUse" gradientTransform="translate(103287 -228117) scale(1.3027e+06 1.27966e+06)">
<stop offset="0.14" stop-color="#FFF44F"/>
<stop offset="0.48" stop-color="#FF980E"/>
<stop offset="0.66" stop-color="#FF3647"/>
<stop offset="0.9" stop-color="#E31587"/>
</radialGradient>
<radialGradient id="paint10_radial_2110_18667" cx="0" cy="0" r="1" gradientUnits="userSpaceOnUse" gradientTransform="translate(796599 -200043) scale(1.56569e+06 1.40065e+06)">
<stop offset="0.09" stop-color="#FFF44F"/>
<stop offset="0.63" stop-color="#FF980E"/>
</radialGradient>
<linearGradient id="paint11_linear_2110_18667" x1="1.07524e+06" y1="194433" x2="211229" y2="1.1385e+06" gradientUnits="userSpaceOnUse">
<stop offset="0.17" stop-color="#FFF44F" stop-opacity="0.8"/>
<stop offset="0.6" stop-color="#FFF44F" stop-opacity="0"/>
</linearGradient>
</defs>
</svg>
