<svg width="25" height="32" viewBox="0 0 25 32" fill="none" xmlns="http://www.w3.org/2000/svg">
<g clip-path="url(#clip0_350_16694)">
<path d="M0 0V26.2337L12.4856 32L25 26.2337V0H0Z" fill="#AD5600"/>
<path d="M18.3499 15.5794C18.3499 16.4481 18.1736 17.2008 17.8211 17.8375C17.4827 18.4581 17.0099 18.9953 16.4374 19.41C15.8552 19.8277 15.204 20.1395 14.5136 20.3313C13.8074 20.5324 13.0767 20.6344 12.3424 20.6344C11.6337 20.6349 10.9275 20.551 10.2386 20.3844C9.58142 20.2296 8.95166 19.9754 8.37114 19.6306C7.80416 19.2895 7.30463 18.8472 6.89739 18.3256C6.47739 17.794 6.16239 17.1527 5.95239 16.4019L9.46239 15.4794C9.61239 16.0048 9.91989 16.4661 10.3849 16.8631C10.8499 17.2602 11.4424 17.459 12.1624 17.4594C12.4399 17.4587 12.7161 17.4208 12.9836 17.3469C13.2503 17.2778 13.502 17.1602 13.7261 17C13.9496 16.8361 14.134 16.6248 14.2661 16.3813C14.4086 16.1267 14.4799 15.8117 14.4799 15.4363C14.4799 15.0313 14.3861 14.6938 14.1986 14.4238C14.0085 14.1515 13.7532 13.931 13.4561 13.7825C13.1265 13.6178 12.7737 13.504 12.4099 13.445C12.0235 13.3778 11.6321 13.344 11.2399 13.3438H10.2274V10.5994H11.3299C11.6764 10.6004 12.0225 10.5741 12.3649 10.5206C12.6758 10.4739 12.9763 10.3743 13.2536 10.2263C13.5087 10.0896 13.7254 9.89105 13.8836 9.64877C14.0411 9.40752 14.1199 9.09064 14.1199 8.69814C14.1199 8.12439 13.9174 7.68689 13.5124 7.38564C13.1103 7.08456 12.6197 6.92522 12.1174 6.93252C11.6062 6.92256 11.108 7.09394 10.7111 7.41627C10.3113 7.74477 10.0379 8.20179 9.93739 8.70939L6.42739 7.89689C6.60394 7.2578 6.90093 6.65831 7.30239 6.13064C7.68751 5.63473 8.15621 5.20981 8.68739 4.87502C9.22716 4.53432 9.81493 4.27646 10.4311 4.11002C11.0625 3.93754 11.7141 3.85051 12.3686 3.85127C13.0638 3.85021 13.7561 3.94121 14.4274 4.12189C15.0675 4.28972 15.6722 4.57151 16.2124 4.95377C16.7335 5.32509 17.1674 5.80564 17.4836 6.36189C17.8061 6.92564 17.9674 7.59043 17.9674 8.35627C17.9674 9.24293 17.7161 9.99043 17.2136 10.5988C16.7191 11.2019 16.0453 11.6319 15.2899 11.8263V11.8938C15.7272 11.9937 16.1452 12.1645 16.5274 12.3994C16.8924 12.6231 17.219 12.9039 17.4949 13.2313C17.7647 13.5533 17.9778 13.919 18.1249 14.3125C18.2762 14.7177 18.3524 15.1469 18.3499 15.5794Z" fill="white"/>
<path d="M0 21.1888V23.6838L12.4856 29.45L25 23.6838V21.1888L12.4856 26.955L0 21.1888Z" fill="white"/>
</g>
<defs>
<clipPath id="clip0_350_16694">
<rect width="25" height="32" fill="white"/>
</clipPath>
</defs>
</svg>
