<svg width="16" height="16" viewBox="0 0 16 16" fill="none" xmlns="http://www.w3.org/2000/svg">
<path d="M13.14 12.1965C13.2642 12.3214 13.3339 12.4903 13.3339 12.6663C13.3339 12.8424 13.2642 13.0113 13.14 13.1362C13.0783 13.1991 13.0046 13.2492 12.9234 13.2836C12.8421 13.3179 12.7549 13.3357 12.6667 13.3361C12.5785 13.3357 12.4912 13.3179 12.41 13.2836C12.3287 13.2492 12.2551 13.1991 12.1933 13.1362L8 8.94436L3.80667 13.1362C3.74492 13.1991 3.67129 13.2492 3.59004 13.2836C3.50879 13.3179 3.42154 13.3357 3.33333 13.3361C3.24513 13.3357 3.15787 13.3179 3.07662 13.2836C2.99537 13.2492 2.92174 13.1991 2.86 13.1362C2.73583 13.0113 2.66614 12.8424 2.66614 12.6663C2.66614 12.4903 2.73583 12.3214 2.86 12.1965L7.06 8.0047L2.86 3.80622C2.73583 3.68136 2.66614 3.51246 2.66614 3.3364C2.66614 3.16034 2.73583 2.99143 2.86 2.86657C2.92198 2.8041 2.99571 2.75452 3.07695 2.72068C3.15819 2.68685 3.24533 2.66943 3.33333 2.66943C3.42134 2.66943 3.50848 2.68685 3.58972 2.72068C3.67096 2.75452 3.74469 2.8041 3.80667 2.86657L8 7.05838L12.1933 2.86657C12.2553 2.8041 12.329 2.75452 12.4103 2.72068C12.4915 2.68685 12.5787 2.66943 12.6667 2.66943C12.7547 2.66943 12.8418 2.68685 12.9231 2.72068C13.0043 2.75452 13.078 2.8041 13.14 2.86657C13.2642 2.99143 13.3339 3.16034 13.3339 3.3364C13.3339 3.51246 13.2642 3.68136 13.14 3.80622L8.94667 8.0047L13.14 12.1965Z" fill="#9BA1B4"/>
</svg>
