<svg width="14" height="15" viewBox="0 0 14 15" fill="none" xmlns="http://www.w3.org/2000/svg">
<g id="&#8;icn_solved">
<g clip-path="url(#clip0_2352_20044)">
<path id="Vector" fill-rule="evenodd" clip-rule="evenodd" d="M1 0.5C0.447715 0.5 0 0.947716 0 1.5V13.5C0 14.0523 0.447716 14.5 1 14.5H13C13.5523 14.5 14 14.0523 14 13.5V1.5C14 0.947715 13.5523 0.5 13 0.5H1ZM10 7.5C10 9.15685 8.65685 10.5 7 10.5C5.34315 10.5 4 9.15685 4 7.5C4 5.84315 5.34315 4.5 7 4.5C8.65685 4.5 10 5.84315 10 7.5ZM11 7.5C11 9.70914 9.20914 11.5 7 11.5C4.79086 11.5 3 9.70914 3 7.5C3 5.29086 4.79086 3.5 7 3.5C9.20914 3.5 11 5.29086 11 7.5Z" fill="#35BCB3"/>
</g>
</g>
<defs>
<clipPath id="clip0_2352_20044">
<rect y="0.5" width="14" height="14" rx="2" fill="white"/>
</clipPath>
</defs>
</svg>
