<svg width="246" height="341" viewBox="0 0 246 341" fill="none" xmlns="http://www.w3.org/2000/svg">
<g clip-path="url(#clip0_500_26037)">
<mask id="mask0_500_26037" style="mask-type:luminance" maskUnits="userSpaceOnUse" x="0" y="-1" width="246" height="342">
<path d="M232.521 -0.00195312H13.4795C6.03496 -0.00195312 0 6.19788 0 13.8458V327.151C0 334.799 6.03496 340.998 13.4795 340.998H232.521C239.965 340.998 246 334.799 246 327.151V13.8458C246 6.19788 239.965 -0.00195312 232.521 -0.00195312Z" fill="white"/>
</mask>
<g mask="url(#mask0_500_26037)">
<mask id="mask1_500_26037" style="mask-type:luminance" maskUnits="userSpaceOnUse" x="0" y="-1" width="246" height="342">
<path d="M246 -0.00195312H0V340.998H246V-0.00195312Z" fill="white"/>
</mask>
<g mask="url(#mask1_500_26037)">
<path d="M0 13.7989C0 6.15102 6.03496 -0.00195312 13.4795 -0.00195312H232.521C239.964 -0.00195312 246 6.15102 246 13.7989C246 42.1124 246 107.976 246 154.054C241.065 160.475 238.298 164.077 233.363 170.498C238.298 176.92 241.065 180.521 246 186.942C246 233.02 246 298.884 246 327.197C246 334.845 239.964 340.998 232.521 340.998H13.4795C6.03497 340.998 0 334.845 0 327.197C0 298.884 0 233.02 0 186.942C4.27705 180.521 6.67501 176.92 10.9521 170.498C6.67501 164.077 4.27705 160.475 0 154.054C0 107.976 0 42.1124 0 13.7989Z" fill="#0F151E"/>
<path d="M243.547 485.56C326.115 421.909 340.004 305.684 274.569 225.962C209.134 146.24 89.1515 133.213 6.58396 196.863C-75.9845 260.513 -89.8732 376.74 -24.4374 456.461C40.9975 536.182 160.979 549.211 243.547 485.56Z" fill="url(#paint0_radial_500_26037)"/>
</g>
</g>
<g opacity="0.5">
<path d="M27.4127 312.653H28.8436V319.245H27.4127V317.074H24.482V319.245H23.0625V312.653H24.3217V311.236H27.3897V312.653H24.482V315.646H27.4127V312.653Z" fill="white"/>
<path d="M47.1999 319.289H45.7634V311.223H47.1999V314.129C47.1999 314.247 47.2336 314.302 47.3005 314.302C47.362 314.302 47.3956 314.28 47.4795 314.169C47.8875 313.661 48.4185 313.398 49.1564 313.398C50.4532 313.398 51.2357 314.263 51.2357 315.753V319.289H49.8047V315.981C49.8047 315.133 49.4191 314.664 48.7092 314.664C48.2397 314.664 47.8539 314.855 47.6024 315.195C47.3342 315.546 47.1999 316.054 47.1999 316.712V319.289ZM54.5252 319.474C53.1444 319.474 52.3563 318.609 52.3563 317.12V313.583H53.7928V316.868C53.7928 317.733 54.1841 318.207 54.9164 318.207C55.4027 318.207 55.766 318.04 56.0063 317.7C56.2468 317.36 56.3698 316.885 56.3698 316.271V313.583H57.8007V319.289H56.7498C56.7443 319.133 56.7163 318.888 56.6883 318.749C56.6492 318.576 56.6045 318.514 56.4983 318.514C56.4256 318.514 56.3809 318.548 56.2859 318.659C55.8443 319.2 55.3021 319.474 54.5252 319.474ZM62.4875 319.474C61.6993 319.474 61.0677 319.206 60.5814 318.665C60.4863 318.553 60.4304 318.52 60.3579 318.52C60.2628 318.52 60.218 318.581 60.1901 318.731C60.151 318.888 60.1286 319.072 60.1231 319.289H59.061V311.223H60.4976V313.967C60.4976 314.079 60.531 314.135 60.5982 314.135C60.6484 314.135 60.6764 314.118 60.7436 314.056C61.1403 313.661 61.7329 313.41 62.4484 313.41C62.9905 313.41 63.488 313.538 63.9297 313.8C64.3712 314.062 64.7178 314.425 64.9693 314.888C65.2208 315.351 65.3438 315.864 65.3438 316.439C65.3438 317.013 65.2208 317.527 64.9749 317.99C64.7233 318.453 64.3824 318.815 63.952 319.077C63.516 319.345 63.0297 319.474 62.4875 319.474ZM62.1745 318.246C63.175 318.246 63.8737 317.51 63.8737 316.439C63.8737 315.373 63.175 314.636 62.1745 314.636C61.6993 314.636 61.3025 314.787 60.9895 315.089C60.654 315.407 60.4585 315.881 60.4585 316.439C60.4585 316.997 60.654 317.477 60.9895 317.795C61.3025 318.095 61.6993 318.246 62.1745 318.246Z" fill="white"/>
<path d="M30.8433 311.223V319.289H29.7365V311.223H30.8433ZM35.0103 321.789C33.4452 321.789 32.3663 320.907 32.098 319.691H33.2104C33.4172 320.428 34.1104 320.874 35.0271 320.874C36.145 320.874 36.7487 320.293 36.7487 319.206V318.525C36.7487 318.425 36.7151 318.375 36.6481 318.375C36.6089 318.375 36.5642 318.403 36.5139 318.464C36.0891 318.927 35.4519 319.172 34.7141 319.172C33.6408 319.172 32.7465 318.654 32.2601 317.789C32.0141 317.36 31.8912 316.874 31.8912 316.333C31.8912 315.217 32.4167 314.302 33.2607 313.811C33.6799 313.565 34.1495 313.443 34.6581 313.443C35.4686 313.443 36.0724 313.716 36.581 314.269C36.7096 314.397 36.7375 314.419 36.8046 314.419C36.8884 314.419 36.9275 314.358 36.9499 314.201C36.9723 314.024 37.0002 313.784 37.0058 313.621H37.8275V319.184C37.8275 320.801 36.7207 321.789 35.0103 321.789ZM34.904 318.263C35.4352 318.263 35.8934 318.085 36.2121 317.767C36.5697 317.426 36.7766 316.919 36.7766 316.333C36.7766 315.747 36.5754 315.245 36.2121 314.894C35.8934 314.575 35.4352 314.397 34.904 314.397C33.8029 314.397 33.026 315.2 33.026 316.333C33.026 317.074 33.3614 317.688 33.9315 318.018C34.2165 318.179 34.5407 318.263 34.904 318.263ZM41.9386 319.468C41.3461 319.468 40.8151 319.339 40.3399 319.077C39.8648 318.821 39.4958 318.464 39.2332 318C38.9649 317.543 38.8307 317.03 38.8307 316.456C38.8307 315.881 38.9649 315.367 39.2332 314.905C39.4958 314.447 39.8648 314.09 40.3399 313.828C40.8151 313.571 41.3461 313.443 41.9386 313.443C42.531 313.443 43.0621 313.571 43.5372 313.828C44.0123 314.09 44.3813 314.447 44.6496 314.905C44.9179 315.362 45.052 315.881 45.052 316.456C45.052 317.61 44.4819 318.564 43.5372 319.077C43.0621 319.339 42.531 319.468 41.9386 319.468ZM41.9386 318.52C42.7155 318.52 43.336 318.151 43.6714 317.527C43.8335 317.215 43.9173 316.857 43.9173 316.456C43.9173 315.652 43.5707 315.005 42.9727 314.654C42.6707 314.481 42.3242 314.392 41.9386 314.392C40.7703 314.392 39.9654 315.245 39.9654 316.456C39.9654 317.666 40.7703 318.52 41.9386 318.52Z" fill="white"/>
</g>
<g opacity="0.7">
<path d="M217.652 316.51H212.367V321.788H217.652V316.51Z" fill="url(#paint1_linear_500_26037)"/>
</g>
<g opacity="0.7">
<path d="M222.938 311.223H217.652V316.501H222.938V311.223Z" fill="url(#paint2_linear_500_26037)"/>
</g>
</g>
<defs>
<radialGradient id="paint0_radial_500_26037" cx="0" cy="0" r="1" gradientUnits="userSpaceOnUse" gradientTransform="translate(31.2629 470.885) rotate(-75.8306) scale(265.985 267.576)">
<stop stop-color="#877AE5"/>
<stop offset="0.48847" stop-color="#413275" stop-opacity="0.8"/>
<stop offset="1" stop-color="#0F151E"/>
</radialGradient>
<linearGradient id="paint1_linear_500_26037" x1="215.01" y1="316.51" x2="215.01" y2="325.747" gradientUnits="userSpaceOnUse">
<stop stop-color="#E0DEFF"/>
<stop offset="1" stop-color="#5951D0"/>
</linearGradient>
<linearGradient id="paint2_linear_500_26037" x1="220.295" y1="311.223" x2="220.295" y2="324.419" gradientUnits="userSpaceOnUse">
<stop stop-color="#E0DEFF"/>
<stop offset="1" stop-color="#5951D0"/>
</linearGradient>
<clipPath id="clip0_500_26037">
<rect width="246" height="341" fill="white"/>
</clipPath>
</defs>
</svg>
