<svg width="28" height="28" viewBox="0 0 28 28" fill="none" xmlns="http://www.w3.org/2000/svg">
<g clip-path="url(#clip0_2110_18658)">
<path d="M22.3125 0H5.74219C2.57086 0 0 2.57086 0 5.74219V22.2578C0 25.4291 2.57086 28 5.74219 28H22.3125C25.4838 28 28.0547 25.4291 28.0547 22.2578V5.74219C28.0547 2.57086 25.4838 0 22.3125 0Z" fill="white"/>
<path d="M14 26.25C20.7655 26.25 26.25 20.7655 26.25 14C26.25 7.23451 20.7655 1.75 14 1.75C7.23451 1.75 1.75 7.23451 1.75 14C1.75 20.7655 7.23451 26.25 14 26.25Z" fill="url(#paint0_linear_2110_18658)"/>
<path d="M22.3672 5.57812L12.9609 12.9609L15.1484 15.1484L22.3672 5.57812Z" fill="#FF0000"/>
<path d="M5.57812 22.3672L12.9609 12.9609L15.1484 15.1484L5.57812 22.3672Z" fill="white"/>
<path d="M14 2.95312V4.75781V2.95312ZM14 23.1875V24.9922V23.1875ZM15.9141 3.11719L15.6023 4.89453L15.9141 3.11719ZM12.3977 23.0398L12.0859 24.8281L12.3977 23.0398ZM17.7734 3.62031L17.1555 5.31562L17.7734 3.62031ZM10.85 22.6297L10.232 24.325L10.85 22.6297ZM12.0859 3.11719L12.3977 4.89453L12.0859 3.11719ZM15.6023 23.0398L15.9141 24.8281L15.6023 23.0398ZM10.2266 3.62031L10.8445 5.31562L10.2266 3.62031ZM17.1445 22.6297L17.7625 24.325L17.1445 22.6297ZM8.4875 4.42969L9.39531 5.99375L8.4875 4.42969ZM18.6102 21.9516L19.5125 23.5156L18.6102 21.9516ZM6.91797 5.52344L8.07734 6.90703L6.91797 5.52344ZM19.9227 21.0273L21.082 22.4109L19.9227 21.0273ZM5.55078 6.87969L6.93438 8.03906L5.55078 6.87969ZM21.0547 19.8953L22.4383 21.0547L21.0547 19.8953ZM4.44609 8.46562L6.01016 9.36797L4.44609 8.46562ZM21.9789 18.5828L23.543 19.4852L21.9789 18.5828ZM3.63672 10.2047L5.33203 10.8227L3.63672 10.2047ZM22.6461 17.1117L24.3414 17.7297L22.6461 17.1117ZM3.13906 12.0422L4.92188 12.3594L3.13906 12.0422ZM23.0781 15.575L24.8555 15.8867L23.0781 15.575ZM2.98047 13.9727H4.78516H2.98047ZM23.2148 13.9727H25.0195H23.2148ZM3.14453 15.8867L4.92188 15.575L3.14453 15.8867ZM23.0781 12.3703L24.8555 12.0586L23.0781 12.3703ZM3.65312 17.7461L5.34844 17.1281L3.65312 17.7461ZM22.657 10.8281L24.3523 10.2102L22.657 10.8281ZM4.45703 19.4852L6.02109 18.5828L4.45703 19.4852ZM21.9898 9.36797L23.5539 8.46562L21.9898 9.36797ZM5.55625 21.0547L6.93984 19.8953L5.55625 21.0547ZM21.0492 8.05L22.4328 6.89062L21.0492 8.05ZM6.90156 22.4219L8.06094 21.0383L6.90156 22.4219ZM19.9062 6.91797L21.0656 5.53437L19.9062 6.91797ZM8.4875 23.5156L9.39531 21.9516L8.4875 23.5156ZM18.6102 5.99375L19.5125 4.42969L18.6102 5.99375ZM13.0375 2.99687L13.125 3.98125L13.0375 2.99687ZM14.875 23.975L14.9625 24.9594L14.875 23.975ZM11.1453 3.33594L11.4023 4.2875L11.1453 3.33594ZM16.5977 23.6687L16.8547 24.6203L16.5977 23.6687ZM9.34062 3.99219L9.75625 4.88359L9.34062 3.99219ZM18.2328 23.0727L18.6539 23.9641L18.2328 23.0727ZM7.67812 4.94375L8.24141 5.75312L7.67812 4.94375ZM19.7586 22.1922L20.3219 23.0016L19.7586 22.1922ZM6.20703 6.17969L6.90156 6.87422L6.20703 6.17969ZM21.0984 21.0711L21.793 21.7656L21.0984 21.0711ZM4.97656 7.65625L5.78594 8.21953L4.97656 7.65625ZM22.225 19.7422L23.0234 20.2891L22.225 19.7422ZM4.01406 9.31328L4.90547 9.72891L4.01406 9.31328ZM23.0945 18.2055L23.9859 18.6266L23.0945 18.2055ZM3.35781 11.118L4.30937 11.375L3.35781 11.118ZM23.6906 16.5703L24.6422 16.8273L23.6906 16.5703ZM3.02422 13.0156L4.00859 13.1031L3.02422 13.0156ZM24.0023 14.8531L24.9867 14.9406L24.0023 14.8531ZM3.03516 14.9406L4.01953 14.8531L3.03516 14.9406ZM24.0133 13.1031L24.9977 13.0156L24.0133 13.1031ZM3.35781 16.8273L4.30937 16.5703L3.35781 16.8273ZM23.6906 11.375L24.6422 11.118L23.6906 11.375ZM4.01406 18.632L4.90547 18.2164L4.01406 18.632ZM23.0945 9.73984L23.9859 9.32422L23.0945 9.73984ZM4.97656 20.2891L5.78594 19.7258L4.97656 20.2891ZM22.225 8.20312L23.0234 7.65625L22.225 8.20312ZM7.67812 23.0016L8.24141 22.1922L7.67812 23.0016ZM19.7531 5.75312L20.3219 4.94375L19.7531 5.75312ZM9.34062 23.9531L9.76172 23.0617L9.34062 23.9531ZM18.2383 4.86719L18.6594 3.97578L18.2383 4.86719ZM11.1453 24.6094L11.4023 23.6578L11.1453 24.6094ZM16.5977 4.27656L16.8547 3.325L16.5977 4.27656ZM13.0375 24.9375L13.125 23.9531L13.0375 24.9375ZM14.875 3.95938L14.9625 2.975L14.875 3.95938Z" fill="black"/>
<path d="M14 2.95312V4.75781M14 23.1875V24.9922M15.9141 3.11719L15.6023 4.89453M12.3977 23.0398L12.0859 24.8281M17.7734 3.62031L17.1555 5.31562M10.85 22.6297L10.232 24.325M12.0859 3.11719L12.3977 4.89453M15.6023 23.0398L15.9141 24.8281M10.2266 3.62031L10.8445 5.31562M17.1445 22.6297L17.7625 24.325M8.4875 4.42969L9.39531 5.99375M18.6102 21.9516L19.5125 23.5156M6.91797 5.52344L8.07734 6.90703M19.9227 21.0273L21.082 22.4109M5.55078 6.87969L6.93437 8.03906M21.0547 19.8953L22.4383 21.0547M4.44609 8.46562L6.01016 9.36797M21.9789 18.5828L23.543 19.4852M3.63672 10.2047L5.33203 10.8227M22.6461 17.1117L24.3414 17.7297M3.13906 12.0422L4.92187 12.3594M23.0781 15.575L24.8555 15.8867M2.98047 13.9727H4.78516M23.2148 13.9727H25.0195M3.14453 15.8867L4.92187 15.575M23.0781 12.3703L24.8555 12.0586M3.65312 17.7461L5.34844 17.1281M22.657 10.8281L24.3523 10.2102M4.45703 19.4852L6.02109 18.5828M21.9898 9.36797L23.5539 8.46562M5.55625 21.0547L6.93984 19.8953M21.0492 8.05L22.4328 6.89062M6.90156 22.4219L8.06094 21.0383M19.9062 6.91797L21.0656 5.53437M8.4875 23.5156L9.39531 21.9516M18.6102 5.99375L19.5125 4.42969M13.0375 2.99687L13.125 3.98125M14.875 23.975L14.9625 24.9594M11.1453 3.33594L11.4023 4.2875M16.5977 23.6687L16.8547 24.6203M9.34062 3.99219L9.75625 4.88359M18.2328 23.0727L18.6539 23.9641M7.67812 4.94375L8.24141 5.75312M19.7586 22.1922L20.3219 23.0016M6.20703 6.17969L6.90156 6.87422M21.0984 21.0711L21.793 21.7656M4.97656 7.65625L5.78594 8.21953M22.225 19.7422L23.0234 20.2891M4.01406 9.31328L4.90547 9.72891M23.0945 18.2055L23.9859 18.6266M3.35781 11.118L4.30937 11.375M23.6906 16.5703L24.6422 16.8273M3.02422 13.0156L4.00859 13.1031M24.0023 14.8531L24.9867 14.9406M3.03516 14.9406L4.01953 14.8531M24.0133 13.1031L24.9977 13.0156M3.35781 16.8273L4.30937 16.5703M23.6906 11.375L24.6422 11.118M4.01406 18.632L4.90547 18.2164M23.0945 9.73984L23.9859 9.32422M4.97656 20.2891L5.78594 19.7258M22.225 8.20312L23.0234 7.65625M7.67812 23.0016L8.24141 22.1922M19.7531 5.75312L20.3219 4.94375M9.34062 23.9531L9.76172 23.0617M18.2383 4.86719L18.6594 3.97578M11.1453 24.6094L11.4023 23.6578M16.5977 4.27656L16.8547 3.325M13.0375 24.9375L13.125 23.9531M14.875 3.95937L14.9625 2.975" stroke="white" stroke-width="0.164062"/>
</g>
<defs>
<linearGradient id="paint0_linear_2110_18658" x1="1.75" y1="1.75" x2="1.75" y2="125442" gradientUnits="userSpaceOnUse">
<stop stop-color="#19D7FF"/>
<stop offset="1" stop-color="#1E64F0"/>
</linearGradient>
<clipPath id="clip0_2110_18658">
<rect width="28" height="28" fill="white"/>
</clipPath>
</defs>
</svg>
