<svg width="25" height="32" viewBox="0 0 25 32" fill="none" xmlns="http://www.w3.org/2000/svg">
<g clip-path="url(#clip0_350_16755)">
<path d="M0 0V26.2337L12.4856 32L25 26.2337V0H0Z" fill="#27E2A4"/>
<path d="M0 21.1888V23.6838L12.4856 29.45L25 23.6838V21.1888L12.4856 26.955L0 21.1888Z" fill="white"/>
<path d="M6.76261 20.2069V17.0625L12.9726 11.4469C13.3349 11.1066 13.6524 10.7216 13.9176 10.3012C14.1581 9.91021 14.2829 9.45905 14.2776 9C14.2776 8.43125 14.0976 7.97083 13.7376 7.61875C13.3776 7.26667 12.8984 7.09062 12.3001 7.09062C11.6701 7.09062 11.1564 7.31187 10.7589 7.75437C10.3614 8.19687 10.1243 8.77875 10.0476 9.5L6.42261 9.005C6.49667 8.24657 6.72239 7.51075 7.08636 6.84125C7.42707 6.22261 7.88123 5.67367 8.42511 5.22312C8.9759 4.77207 9.60518 4.42649 10.2814 4.20375C10.9967 3.96569 11.7462 3.846 12.5001 3.84937C13.2227 3.84798 13.942 3.94641 14.6376 4.14187C15.303 4.32514 15.9286 4.63031 16.4826 5.04187C17.0235 5.44797 17.4658 5.97098 17.7764 6.57187C18.0989 7.18729 18.2601 7.90729 18.2601 8.73187C18.2673 9.2543 18.1913 9.77454 18.0351 10.2731C17.8889 10.7235 17.6806 11.1514 17.4164 11.5444C17.1524 11.9364 16.851 12.3019 16.5164 12.6356C16.1789 12.9731 15.8301 13.3065 15.4701 13.6356L11.7826 16.9206H18.2826V20.2056L6.76261 20.2069Z" fill="white"/>
</g>
<defs>
<clipPath id="clip0_350_16755">
<rect width="25" height="32" fill="white"/>
</clipPath>
</defs>
</svg>
