<svg width="16" height="16" viewBox="0 0 16 16" fill="none" xmlns="http://www.w3.org/2000/svg">
  <path
    d="M13.6774 10.7661C13.3652 10.2146 12.9011 8.65394 12.9011 6.61558C12.9011 5.39145 12.4269 4.21746 11.5828 3.35187C10.7388 2.48628 9.59396 2 8.40028 2C7.2066 2 6.06181 2.48628 5.21775 3.35187C4.37369 4.21746 3.8995 5.39145 3.8995 6.61558C3.8995 8.65452 3.4348 10.2146 3.12256 10.7661C3.04282 10.9064 3.00055 11.0657 3.00001 11.228C2.99946 11.3903 3.04067 11.5499 3.11946 11.6907C3.19826 11.8315 3.31186 11.9485 3.44881 12.0299C3.58576 12.1112 3.74122 12.1542 3.8995 12.1543H6.19546C6.2993 12.6754 6.57545 13.1437 6.97721 13.48C7.37897 13.8163 7.88167 14 8.40028 14C8.9189 14 9.4216 13.8163 9.82335 13.48C10.2251 13.1437 10.5013 12.6754 10.6051 12.1543H12.9011C13.0593 12.1541 13.2147 12.1111 13.3516 12.0296C13.4884 11.9482 13.6019 11.8312 13.6807 11.6905C13.7594 11.5497 13.8006 11.3901 13.8 11.2279C13.7994 11.0656 13.7572 10.9063 13.6774 10.7661ZM8.40028 13.0774C8.12113 13.0773 7.84887 12.9885 7.62097 12.8232C7.39307 12.6579 7.22074 12.4242 7.12769 12.1543H9.67288C9.57983 12.4242 9.40749 12.6579 9.17959 12.8232C8.95169 12.9885 8.67943 13.0773 8.40028 13.0774ZM3.8995 11.2312C4.3327 10.4673 4.79966 8.69721 4.79966 6.61558C4.79966 5.63628 5.17901 4.69709 5.85426 4.00462C6.5295 3.31214 7.44534 2.92312 8.40028 2.92312C9.35523 2.92312 10.2711 3.31214 10.9463 4.00462C11.6216 4.69709 12.0009 5.63628 12.0009 6.61558C12.0009 8.69548 12.4667 10.4656 12.9011 11.2312H3.8995Z"
    fill="#6659FF"
  />
</svg>