<svg width="24" height="24" viewBox="0 0 24 24" fill="none" xmlns="http://www.w3.org/2000/svg">
<path d="M11.2 15.44V17.368C11.2 18.0682 10.9219 18.7397 10.4268 19.2348C9.93167 19.7299 9.26018 20.008 8.56 20.008H6.64C5.93983 20.008 5.26834 19.7299 4.77324 19.2348C4.27815 18.7397 4 18.0682 4 17.368V15.44C4.00211 14.7405 4.28093 14.0703 4.77557 13.5756C5.27021 13.081 5.94048 12.8022 6.64 12.8H8.56C9.25953 12.8022 9.92979 13.081 10.4244 13.5756C10.9191 14.0703 11.1979 14.7405 11.2 15.44Z" fill="white"/>
<path d="M19.9998 6.64V8.544C19.9998 8.89069 19.9315 9.23399 19.7989 9.55428C19.6662 9.87458 19.4717 10.1656 19.2266 10.4108C18.9814 10.6559 18.6904 10.8504 18.3701 10.983C18.0498 11.1157 17.7065 11.184 17.3598 11.184H15.4478C14.7483 11.1819 14.078 10.9031 13.5834 10.4084C13.0887 9.91379 12.8099 9.24352 12.8078 8.544V6.64C12.8099 5.94048 13.0887 5.27021 13.5834 4.77557C14.078 4.28093 14.7483 4.00211 15.4478 4H17.3598C18.06 4 18.7315 4.27814 19.2266 4.77324C19.7217 5.26833 19.9998 5.93983 19.9998 6.64Z" fill="white"/>
<path d="M17.36 12.808H15.44C13.982 12.808 12.8 13.99 12.8 15.448V17.368C12.8 18.826 13.982 20.008 15.44 20.008H17.36C18.818 20.008 20 18.826 20 17.368V15.448C20 13.99 18.818 12.808 17.36 12.808Z" fill="white"/>
<path d="M4 8.568V6.64C4.00211 5.94048 4.28093 5.27021 4.77557 4.77557C5.27021 4.28093 5.94048 4.00211 6.64 4H8.544C9.24352 4.00211 9.9138 4.28093 10.4084 4.77557C10.9031 5.27021 11.1819 5.94048 11.184 6.64V8.552C11.184 9.25217 10.9059 9.92367 10.4108 10.4188C9.91566 10.9139 9.24417 11.192 8.544 11.192H6.64C5.94259 11.192 5.27351 10.9161 4.77888 10.4244C4.28424 9.93279 4.00423 9.2654 4 8.568Z" fill="white"/>
</svg>
