<svg width="20" height="20" viewBox="0 0 20 20" fill="none" xmlns="http://www.w3.org/2000/svg">
<mask id="mask0_500_26010" style="mask-type:alpha" maskUnits="userSpaceOnUse" x="0" y="0" width="20" height="20">
<rect width="20" height="20" fill="#D9D9D9"/>
</mask>
<g mask="url(#mask0_500_26010)">
<path d="M10 15.875L13.1667 12.7083C13.3195 12.5556 13.4965 12.4792 13.6979 12.4792C13.8993 12.4792 14.0764 12.5556 14.2292 12.7083C14.382 12.8611 14.4584 13.0382 14.4584 13.2396C14.4584 13.441 14.382 13.6181 14.2292 13.7708L11.0625 16.9375C10.7709 17.2292 10.4167 17.375 10 17.375C9.58335 17.375 9.22919 17.2292 8.93752 16.9375L5.77085 13.7708C5.61808 13.6181 5.54516 13.441 5.5521 13.2396C5.55905 13.0382 5.63891 12.8611 5.79169 12.7083C5.94446 12.5556 6.12155 12.4792 6.32294 12.4792C6.52433 12.4792 6.70141 12.5556 6.85419 12.7083L10 15.875ZM10 4.125L6.83335 7.29167C6.68058 7.44444 6.50349 7.52083 6.3021 7.52083C6.10071 7.52083 5.92363 7.44444 5.77085 7.29167C5.61808 7.13889 5.54169 6.96181 5.54169 6.76042C5.54169 6.55903 5.61808 6.38194 5.77085 6.22917L8.93752 3.0625C9.22919 2.77083 9.58335 2.625 10 2.625C10.4167 2.625 10.7709 2.77083 11.0625 3.0625L14.2292 6.22917C14.382 6.38194 14.4584 6.55556 14.4584 6.75C14.4584 6.94444 14.382 7.11806 14.2292 7.27083C14.0764 7.42361 13.8993 7.5 13.6979 7.5C13.4965 7.5 13.3195 7.42361 13.1667 7.27083L10 4.125Z" fill="#9BA1B4"/>
</g>
</svg>
