<svg width="24" height="24" viewBox="0 0 24 24" fill="none" xmlns="http://www.w3.org/2000/svg">
<path d="M12.5081 5.49194C8.92866 5.49194 6 8.4206 6 12.0001C6 15.5796 8.92866 18.5082 12.5081 18.5082C14.2979 18.5082 15.9574 17.8086 17.1289 16.6209L15.9574 15.4494C15.0788 16.328 13.8586 16.8812 12.4919 16.8812C9.79099 16.8812 7.61076 14.701 7.61076 12.0001C7.61076 9.2992 9.79099 7.11898 12.4919 7.11898C13.8423 7.11898 15.0138 7.70471 15.8924 8.59958L14.1189 10.373H19V5.49194L17.0638 7.42811C15.8924 6.25665 14.2816 5.49194 12.4919 5.49194H12.5081Z" fill="#464F67"/>
</svg>
