<svg width="58" height="21" viewBox="0 0 58 21" fill="none" xmlns="http://www.w3.org/2000/svg">
<rect width="58" height="21" rx="4" fill="#6659FF"/>
<path d="M5.96563 6.51562H11.2273V7.62891H7.25469V10.1953H10.8523V11.2969H7.25469V15H5.96563V6.51562ZM11.9352 13.207C11.9313 12.5469 12.152 12.0762 12.5973 11.7949C13.0465 11.5137 13.6188 11.3477 14.3141 11.2969C15.2164 11.2461 15.773 11.2168 15.984 11.209L15.9781 10.6992C15.982 10.3359 15.8727 10.0566 15.65 9.86133C15.4313 9.66211 15.1109 9.5625 14.6891 9.5625C14.3336 9.5625 14.0426 9.63672 13.816 9.78516C13.5895 9.92969 13.443 10.125 13.3766 10.3711H12.1344C12.1734 10.0195 12.3043 9.70703 12.527 9.43359C12.7496 9.15625 13.0504 8.94141 13.4293 8.78906C13.8082 8.63281 14.2438 8.55469 14.7359 8.55469C15.1383 8.55469 15.525 8.61719 15.8961 8.74219C16.2711 8.86328 16.5875 9.08984 16.8453 9.42188C17.1031 9.75 17.232 10.1992 17.232 10.7695V15H16.0133V14.1328H15.9664C15.8219 14.4102 15.5914 14.6484 15.275 14.8477C14.9586 15.043 14.5602 15.1406 14.0797 15.1406C13.6734 15.1406 13.3063 15.0645 12.9781 14.9121C12.6539 14.7598 12.398 14.5391 12.2105 14.25C12.027 13.957 11.9352 13.6094 11.9352 13.207ZM13.1539 13.2188C13.1539 13.5156 13.2633 13.7441 13.482 13.9043C13.7047 14.0605 13.9977 14.1406 14.3609 14.1445C14.6891 14.1445 14.9762 14.0781 15.2223 13.9453C15.4684 13.8125 15.6578 13.6367 15.7906 13.418C15.9234 13.1953 15.9898 12.957 15.9898 12.7031L15.984 12.123L14.4898 12.2227C14.0641 12.2539 13.734 12.3516 13.4996 12.5156C13.2691 12.6797 13.1539 12.9141 13.1539 13.2188ZM21.3617 15H20.0141L17.7055 8.63672H19.0531L20.6586 13.5234H20.7172L22.3227 8.63672H23.6703L21.3617 15ZM26.8625 15.1289C26.2688 15.1289 25.7453 14.9922 25.2922 14.7188C24.843 14.4453 24.4953 14.0625 24.2492 13.5703C24.007 13.0742 23.8859 12.5 23.8859 11.8477C23.8859 11.1953 24.007 10.6211 24.2492 10.125C24.4953 9.625 24.843 9.23828 25.2922 8.96484C25.7453 8.69141 26.2688 8.55469 26.8625 8.55469C27.4523 8.55469 27.9719 8.69141 28.4211 8.96484C28.8703 9.23828 29.216 9.625 29.4582 10.125C29.7043 10.6211 29.8273 11.1953 29.8273 11.8477C29.8273 12.5 29.7043 13.0742 29.4582 13.5703C29.216 14.0625 28.8703 14.4453 28.4211 14.7188C27.9719 14.9922 27.4523 15.1289 26.8625 15.1289ZM25.1398 11.8477C25.1398 12.2656 25.2043 12.6445 25.3332 12.9844C25.4621 13.3203 25.6555 13.5879 25.9133 13.7871C26.1711 13.9863 26.4875 14.0859 26.8625 14.0859C27.2297 14.0859 27.5402 13.9863 27.7941 13.7871C28.052 13.5879 28.2434 13.3203 28.3684 12.9844C28.4973 12.6445 28.5617 12.2656 28.5617 11.8477C28.5617 11.4297 28.4973 11.0508 28.3684 10.7109C28.2434 10.3672 28.052 10.0938 27.7941 9.89062C27.5402 9.6875 27.2297 9.58594 26.8625 9.58594C26.4875 9.58594 26.1711 9.6875 25.9133 9.89062C25.6555 10.0938 25.4621 10.3672 25.3332 10.7109C25.2043 11.0508 25.1398 11.4297 25.1398 11.8477ZM30.7578 8.63672H31.9648V9.64453H32.0352C32.1523 9.30859 32.3555 9.04102 32.6445 8.8418C32.9375 8.64258 33.2676 8.54297 33.6348 8.54297C33.8184 8.54297 34 8.55078 34.1797 8.56641V9.76172C34.1094 9.74609 34.0078 9.73047 33.875 9.71484C33.7461 9.69922 33.625 9.69141 33.5117 9.69141C33.2266 9.69141 32.9707 9.75391 32.7441 9.87891C32.5176 10 32.3379 10.1699 32.2051 10.3887C32.0762 10.6035 32.0117 10.8477 32.0117 11.1211V15H30.7578V8.63672ZM34.8172 8.63672H36.0711V15H34.8172V8.63672ZM35.4383 7.65234C35.2977 7.65234 35.1668 7.61914 35.0457 7.55273C34.9285 7.48633 34.8328 7.39648 34.7586 7.2832C34.6883 7.16992 34.6531 7.04688 34.6531 6.91406C34.6531 6.78125 34.6883 6.6582 34.7586 6.54492C34.8328 6.43164 34.9305 6.3418 35.0516 6.27539C35.1766 6.20898 35.3094 6.17578 35.45 6.17578C35.5906 6.17578 35.7215 6.20898 35.8426 6.27539C35.9637 6.3418 36.0594 6.43164 36.1297 6.54492C36.2 6.6582 36.2352 6.78125 36.2352 6.91406C36.2352 7.05078 36.198 7.17578 36.1238 7.28906C36.0535 7.40234 35.9578 7.49219 35.8367 7.55859C35.7156 7.62109 35.5828 7.65234 35.4383 7.65234ZM40.2711 9.63281H38.9703V13.125C38.9742 13.4531 39.0426 13.6777 39.1754 13.7988C39.3082 13.916 39.4938 13.9766 39.732 13.9805C39.9195 13.9805 40.1305 13.9688 40.3648 13.9453V15.0352C40.1383 15.0664 39.8766 15.082 39.5797 15.082C39.2398 15.082 38.9293 15.0195 38.648 14.8945C38.3668 14.7695 38.1422 14.5801 37.9742 14.3262C37.8063 14.0684 37.7242 13.7539 37.7281 13.3828V9.63281H36.7906V8.63672H37.7281V7.11328H38.9703V8.63672H40.2711V9.63281ZM43.8617 15.1289C43.2445 15.1289 42.7074 14.9941 42.2504 14.7246C41.7934 14.4551 41.4438 14.0742 41.2016 13.582C40.9594 13.0898 40.8383 12.5156 40.8383 11.8594C40.8383 11.2109 40.9594 10.6367 41.2016 10.1367C41.4438 9.63672 41.7875 9.24805 42.2328 8.9707C42.6781 8.69336 43.1938 8.55469 43.7797 8.55469C44.2914 8.55469 44.7602 8.66602 45.1859 8.88867C45.6117 9.11133 45.9535 9.46289 46.2113 9.94336C46.473 10.4199 46.6039 11.0234 46.6039 11.7539V12.1992H42.0805C42.0922 12.5977 42.1742 12.9395 42.3266 13.2246C42.4789 13.5098 42.6879 13.7266 42.9535 13.875C43.2191 14.0234 43.5258 14.0977 43.8734 14.0977C44.2094 14.0977 44.4945 14.0352 44.7289 13.9102C44.9672 13.7812 45.143 13.6133 45.2563 13.4062H46.5219C46.4281 13.75 46.2602 14.0527 46.018 14.3145C45.7758 14.5723 45.4711 14.7734 45.1039 14.918C44.7367 15.0586 44.3227 15.1289 43.8617 15.1289ZM45.3734 11.2617C45.3734 10.9414 45.307 10.6543 45.1742 10.4004C45.0453 10.1426 44.8598 9.94336 44.6176 9.80273C44.3793 9.6582 44.1039 9.58594 43.7914 9.58594C43.4672 9.58594 43.1781 9.66211 42.9242 9.81445C42.6742 9.96289 42.477 10.166 42.3324 10.4238C42.1879 10.6816 42.1059 10.9609 42.0863 11.2617H45.3734ZM51.1203 10.3711C51.0617 10.1094 50.9289 9.90625 50.7219 9.76172C50.5187 9.61328 50.2492 9.53906 49.9133 9.53906C49.6789 9.53906 49.4699 9.57617 49.2863 9.65039C49.1027 9.72461 48.9582 9.82617 48.8527 9.95508C48.7473 10.084 48.6945 10.2285 48.6945 10.3887C48.6945 10.5801 48.7727 10.7441 48.9289 10.8809C49.0891 11.0176 49.343 11.125 49.6906 11.2031L50.6984 11.4375C51.2844 11.5703 51.7199 11.7793 52.0051 12.0645C52.2941 12.3457 52.4406 12.7109 52.4445 13.1602C52.4406 13.543 52.3332 13.8848 52.1223 14.1855C51.9152 14.4824 51.6164 14.7148 51.2258 14.8828C50.8352 15.0469 50.3742 15.1289 49.843 15.1289C49.0852 15.1289 48.4836 14.9688 48.0383 14.6484C47.593 14.3242 47.3312 13.8633 47.2531 13.2656H48.5305C48.6437 13.8359 49.0695 14.1211 49.8078 14.1211C50.2219 14.1211 50.55 14.0449 50.7922 13.8926C51.0383 13.7363 51.1633 13.5234 51.1672 13.2539C51.1633 13.0469 51.0812 12.877 50.9211 12.7441C50.7648 12.6074 50.5187 12.5 50.1828 12.4219L49.1867 12.2109C48.6164 12.0859 48.1828 11.875 47.8859 11.5781C47.5891 11.2773 47.4406 10.9062 47.4406 10.4648C47.4406 10.0898 47.5422 9.75781 47.7453 9.46875C47.9523 9.17969 48.2414 8.95508 48.6125 8.79492C48.9875 8.63477 49.4172 8.55469 49.9016 8.55469C50.3664 8.55469 50.7746 8.62891 51.1262 8.77734C51.4777 8.92578 51.7551 9.13672 51.9582 9.41016C52.1613 9.68359 52.2844 10.0039 52.3273 10.3711H51.1203Z" fill="white"/>
</svg>
