<svg width="37" height="36" viewBox="0 0 37 36" fill="none" xmlns="http://www.w3.org/2000/svg">
<g opacity="0.7">
<path fill-rule="evenodd" clip-rule="evenodd" d="M36 18C36 27.941 27.941 36 18 36C8.059 36 0 27.941 0 18C0 8.059 8.059 0 18 0C27.941 0 36 8.059 36 18Z" fill="#222734"/>
</g>
<path d="M10.6875 12.75L17.3596 17.5403C17.7449 17.8168 18.2551 17.8168 18.6404 17.5403L25.3125 12.75M11.25 25H24.75C25.9926 25 27 23.9553 27 22.6667V13.3333C27 12.0447 25.9926 11 24.75 11H11.25C10.0074 11 9 12.0447 9 13.3333V22.6667C9 23.9553 10.0074 25 11.25 25Z" stroke="#79829A" stroke-width="1.5" stroke-linecap="round" stroke-linejoin="round"/>
</svg>
