<svg width="25" height="32" viewBox="0 0 25 32" fill="none" xmlns="http://www.w3.org/2000/svg">
<g clip-path="url(#clip0_350_16742)">
<path d="M0 0V26.2337L12.4856 32L25 26.2337V0H0Z" fill="#EC9A00"/>
<path d="M18.3274 14.9419C18.3274 15.9177 18.1549 16.7615 17.8099 17.4731C17.4869 18.1582 17.014 18.7618 16.4261 19.2394C15.8415 19.7088 15.1736 20.0638 14.4574 20.2856C13.0505 20.7264 11.546 20.7498 10.1261 20.3531C9.49718 20.1768 8.89808 19.9076 8.34863 19.5544C7.81954 19.2142 7.35417 18.784 6.97363 18.2831C6.58814 17.7749 6.30189 17.1986 6.12988 16.5844L9.57238 15.5269C9.72981 16.0727 10.0568 16.5543 10.5061 16.9019C10.9645 17.2619 11.5082 17.4419 12.1374 17.4419C12.7482 17.4542 13.3431 17.2466 13.8136 16.8569C14.2878 16.466 14.5249 15.8887 14.5249 15.125C14.5249 14.6608 14.4274 14.2708 14.2324 13.955C14.0445 13.6475 13.7862 13.3891 13.4786 13.2012C13.1563 13.0084 12.8019 12.8751 12.4324 12.8075C12.0468 12.7329 11.6551 12.6953 11.2624 12.695C10.6094 12.7032 9.95826 12.7672 9.31613 12.8862C8.65366 12.997 8.00235 13.1664 7.36988 13.3925L7.74988 4.27687H17.5174V7.51687H11.1049L10.9699 10.0369C11.2322 9.97325 11.4994 9.93144 11.7686 9.91187C12.0603 9.88937 12.3265 9.87812 12.5674 9.87812C13.3286 9.87255 14.0865 9.97782 14.8174 10.1906C15.4869 10.3823 16.1107 10.7076 16.6511 11.1469C17.1715 11.58 17.5894 12.123 17.8749 12.7369C18.1765 13.3669 18.3274 14.1019 18.3274 14.9419Z" fill="white"/>
<path d="M0 21.1888V23.6838L12.4856 29.45L25 23.6838V21.1888L12.4856 26.955L0 21.1888Z" fill="white"/>
</g>
<defs>
<clipPath id="clip0_350_16742">
<rect width="25" height="32" fill="white"/>
</clipPath>
</defs>
</svg>
