<svg width="16" height="16" viewBox="0 0 16 16" fill="none" xmlns="http://www.w3.org/2000/svg">
<g opacity="0.8" filter="url(#filter0_b_500_25823)">
<rect width="16" height="16" rx="8" fill="#464F67"/>
<rect x="0.266667" y="0.266667" width="15.4667" height="15.4667" rx="7.73333" stroke="#79829A" stroke-width="0.533333"/>
<path d="M11.0841 10.5156C11.1586 10.5905 11.2004 10.6918 11.2004 10.7975C11.2004 10.9031 11.1586 11.0044 11.0841 11.0794C11.0471 11.1171 11.0029 11.1472 10.9541 11.1678C10.9054 11.1884 10.853 11.1991 10.8001 11.1993C10.7472 11.1991 10.6948 11.1884 10.6461 11.1678C10.5973 11.1472 10.5532 11.1171 10.5161 11.0794L8.00012 8.56427L5.48412 11.0794C5.44708 11.1171 5.4029 11.1472 5.35415 11.1678C5.3054 11.1884 5.25304 11.1991 5.20012 11.1993C5.1472 11.1991 5.09485 11.1884 5.0461 11.1678C4.99735 11.1472 4.95317 11.1171 4.91612 11.0794C4.84162 11.0044 4.7998 10.9031 4.7998 10.7975C4.7998 10.6918 4.84162 10.5905 4.91612 10.5156L7.43612 8.00048L4.91612 5.48139C4.84162 5.40647 4.7998 5.30513 4.7998 5.19949C4.7998 5.09386 4.84162 4.99251 4.91612 4.9176C4.95331 4.88012 4.99755 4.85037 5.04629 4.83007C5.09504 4.80977 5.14732 4.79932 5.20012 4.79932C5.25293 4.79932 5.30521 4.80977 5.35395 4.83007C5.4027 4.85037 5.44694 4.88012 5.48412 4.9176L8.00012 7.43268L10.5161 4.9176C10.5533 4.88012 10.5975 4.85037 10.6463 4.83007C10.695 4.80977 10.7473 4.79932 10.8001 4.79932C10.8529 4.79932 10.9052 4.80977 10.954 4.83007C11.0027 4.85037 11.0469 4.88012 11.0841 4.9176C11.1586 4.99251 11.2004 5.09386 11.2004 5.19949C11.2004 5.30513 11.1586 5.40647 11.0841 5.48139L8.56812 8.00048L11.0841 10.5156Z" fill="white"/>
</g>
<defs>
<filter id="filter0_b_500_25823" x="-2.13333" y="-2.13333" width="20.2667" height="20.2667" filterUnits="userSpaceOnUse" color-interpolation-filters="sRGB">
<feFlood flood-opacity="0" result="BackgroundImageFix"/>
<feGaussianBlur in="BackgroundImageFix" stdDeviation="1.06667"/>
<feComposite in2="SourceAlpha" operator="in" result="effect1_backgroundBlur_500_25823"/>
<feBlend mode="normal" in="SourceGraphic" in2="effect1_backgroundBlur_500_25823" result="shape"/>
</filter>
</defs>
</svg>
