<svg width="24" height="24" viewBox="0 0 24 24" fill="none" xmlns="http://www.w3.org/2000/svg">
<path d="M20.8869 19.3729L16.7767 15.2628C17.7447 13.9798 18.3255 12.39 18.3255 10.6628C18.3255 6.4375 14.8871 3 10.6627 3C6.43745 3.00089 2.99995 6.43839 2.99995 10.6637C2.99995 14.8881 6.43745 18.3264 10.6627 18.3264C12.3891 18.3264 13.9798 17.7456 15.2627 16.7777L19.3729 20.8878C19.5817 21.0966 19.8556 21.201 20.1295 21.201C20.4033 21.201 20.6772 21.0966 20.8869 20.8869C21.3044 20.4694 21.3044 19.7914 20.8869 19.3729ZM5.14114 10.6637C5.14114 7.61872 7.61778 5.14208 10.6627 5.14208C13.7068 5.14208 16.1834 7.61872 16.1834 10.6628C16.1834 13.7068 13.7068 16.1835 10.6627 16.1835C7.61778 16.1844 5.14114 13.7077 5.14114 10.6637Z" fill="white"/>
</svg>
