<svg width="16" height="16" viewBox="0 0 16 16" fill="none" xmlns="http://www.w3.org/2000/svg">
<path fill-rule="evenodd" clip-rule="evenodd" d="M6.28925 12.7837C6.59275 12.5752 7.00777 12.6523 7.21621 12.9558C7.29258 13.067 7.39704 13.1548 7.51815 13.2104C7.52694 13.2144 7.53564 13.2187 7.54425 13.2231C7.75422 13.3308 7.99472 13.3606 8.22394 13.3077C8.45321 13.2548 8.65762 13.1222 8.80084 12.9321C9.02238 12.638 9.44037 12.5792 9.73445 12.8007C10.0285 13.0223 10.0874 13.4403 9.86583 13.7344C9.53469 14.1739 9.05982 14.4832 8.52373 14.6069C7.99224 14.7295 7.43514 14.6618 6.94851 14.416C6.61352 14.2593 6.3266 14.0157 6.11713 13.7107C5.90868 13.4072 5.98574 12.9921 6.28925 12.7837Z" fill="#9BA1B4"/>
<path fill-rule="evenodd" clip-rule="evenodd" d="M8 2.66659C7.11595 2.66659 6.2681 3.01777 5.64298 3.6429C5.01786 4.26802 4.66667 5.11586 4.66667 5.99992V6.50659C4.66604 7.21359 4.38468 7.892 3.88444 8.39162L3.64474 8.63132C3.44596 8.8298 3.33372 9.09943 3.33333 9.38032V9.60659C3.33333 9.88772 3.44501 10.1573 3.6438 10.3561C3.84259 10.5549 4.1122 10.6666 4.39333 10.6666H11.6067C11.8878 10.6666 12.1574 10.5549 12.3562 10.3561C12.5526 10.1597 12.6639 9.89424 12.6666 9.6168C12.6575 9.39113 12.5761 9.17425 12.4343 8.99827L12.4251 8.98665L11.9155 8.32487C11.5401 7.85427 11.3348 7.2704 11.3333 6.66822L11.3333 6.66659V5.99992C11.3333 5.11586 10.9821 4.26802 10.357 3.6429C9.7319 3.01777 8.88406 2.66659 8 2.66659ZM4.70017 2.70009C5.57534 1.82492 6.76232 1.33325 8 1.33325C9.23768 1.33325 10.4247 1.82492 11.2998 2.70009C12.175 3.57526 12.6667 4.76224 12.6667 5.99992V6.66566C12.6676 6.96768 12.771 7.26047 12.96 7.49606L12.9682 7.50652L13.4774 8.16783C13.8005 8.57149 13.9839 9.06923 13.9997 9.58617C13.9999 9.59297 14 9.59978 14 9.60659C14 10.2413 13.7478 10.8501 13.299 11.2989C12.8502 11.7478 12.2414 11.9999 11.6067 11.9999H4.39333C3.75858 11.9999 3.14983 11.7478 2.70099 11.2989C2.25215 10.8501 2 10.2413 2 9.60659L2 9.37919C2.00069 8.74472 2.25328 8.13649 2.70226 7.68818C2.70225 7.6882 2.70227 7.68817 2.70226 7.68818L2.94193 7.44851C3.19199 7.19876 3.33296 6.85966 3.33333 6.50624V5.99992C3.33333 4.76224 3.825 3.57526 4.70017 2.70009Z" fill="#9BA1B4"/>
</svg>
