<svg width="24" height="24" viewBox="0 0 24 24" fill="none" xmlns="http://www.w3.org/2000/svg">
<path d="M5 17.8125V16.1875H6.625V10.5C6.625 9.37604 6.96354 8.38073 7.64062 7.51406C8.31771 6.63385 9.19792 6.05833 10.2813 5.7875V5.21875C10.2813 4.88021 10.3964 4.59583 10.6266 4.36562C10.8703 4.12187 11.1615 4 11.5 4C11.8385 4 12.1229 4.12187 12.3531 4.36562C12.5969 4.59583 12.7188 4.88021 12.7188 5.21875V5.7875C13.8021 6.05833 14.6823 6.63385 15.3594 7.51406C16.0365 8.38073 16.375 9.37604 16.375 10.5V16.1875H18V17.8125H5ZM11.5 20.25C11.0531 20.25 10.6672 20.0943 10.3422 19.7828C10.0307 19.4578 9.875 19.0719 9.875 18.625H13.125C13.125 19.0719 12.9625 19.4578 12.6375 19.7828C12.326 20.0943 11.9469 20.25 11.5 20.25ZM8.25 16.1875H14.75V10.5C14.75 9.60625 14.4318 8.84115 13.7953 8.20469C13.1589 7.56823 12.3938 7.25 11.5 7.25C10.6063 7.25 9.84115 7.56823 9.20469 8.20469C8.56823 8.84115 8.25 9.60625 8.25 10.5V16.1875Z" fill="#F9FAFB"/>
</svg>
