<svg width="20" height="20" viewBox="0 0 20 20" fill="none" xmlns="http://www.w3.org/2000/svg">
<mask id="mask0_500_25890" style="mask-type:alpha" maskUnits="userSpaceOnUse" x="0" y="0" width="20" height="20">
<rect width="20" height="20" fill="#D9D9D9"/>
</mask>
<g mask="url(#mask0_500_25890)">
<path d="M8.9375 10.875L7.6875 9.64583C7.53472 9.49306 7.36111 9.41667 7.16667 9.41667C6.97222 9.41667 6.79861 9.49306 6.64583 9.64583C6.49306 9.79861 6.41667 9.97569 6.41667 10.1771C6.41667 10.3785 6.49306 10.5556 6.64583 10.7083L8.41667 12.4792C8.56944 12.6319 8.74306 12.7083 8.9375 12.7083C9.13194 12.7083 9.30556 12.6319 9.45833 12.4792L13.3542 8.58333C13.5069 8.43056 13.5833 8.25347 13.5833 8.05208C13.5833 7.85069 13.5069 7.67361 13.3542 7.52083C13.2014 7.36806 13.0278 7.29167 12.8333 7.29167C12.6389 7.29167 12.4653 7.36806 12.3125 7.52083L8.9375 10.875ZM4.5 17C4.08333 17 3.72917 16.8542 3.4375 16.5625C3.14583 16.2708 3 15.9167 3 15.5V4.5C3 4.08333 3.14583 3.72917 3.4375 3.4375C3.72917 3.14583 4.08333 3 4.5 3H15.5C15.9167 3 16.2708 3.14583 16.5625 3.4375C16.8542 3.72917 17 4.08333 17 4.5V15.5C17 15.9167 16.8542 16.2708 16.5625 16.5625C16.2708 16.8542 15.9167 17 15.5 17H4.5Z" fill="#9BA1B4"/>
</g>
</svg>
