<svg width="37" height="36" viewBox="0 0 37 36" fill="none" xmlns="http://www.w3.org/2000/svg">
<g opacity="0.7">
<path fill-rule="evenodd" clip-rule="evenodd" d="M36 18C36 27.941 27.941 36 18 36C8.059 36 0 27.941 0 18C0 8.059 8.059 0 18 0C27.941 0 36 8.059 36 18Z" fill="#222734"/>
<path fill-rule="evenodd" clip-rule="evenodd" d="M18 8.73999C15.485 8.73999 15.17 8.74999 14.182 8.79599C13.197 8.84099 12.523 8.99699 11.934 9.22599C11.326 9.46299 10.809 9.77999 10.294 10.294C9.78001 10.809 9.46301 11.326 9.22601 11.934C8.99701 12.524 8.84101 13.197 8.79601 14.182C8.75101 15.17 8.74001 15.485 8.74001 18C8.74001 20.515 8.75001 20.83 8.79601 21.818C8.84101 22.804 8.99701 23.477 9.22601 24.066C9.46301 24.675 9.78001 25.191 10.294 25.706C10.809 26.221 11.326 26.537 11.934 26.774C12.524 27.003 13.197 27.159 14.182 27.204C15.17 27.249 15.485 27.26 18 27.26C20.515 27.26 20.83 27.25 21.818 27.204C22.803 27.159 23.477 27.003 24.066 26.774C24.674 26.537 25.191 26.221 25.706 25.706C26.22 25.191 26.537 24.675 26.774 24.066C27.003 23.476 27.159 22.804 27.204 21.818C27.249 20.83 27.26 20.515 27.26 18C27.26 15.485 27.25 15.17 27.204 14.182C27.159 13.197 27.003 12.523 26.774 11.934C26.537 11.326 26.22 10.809 25.706 10.294C25.191 9.77999 24.674 9.46299 24.066 9.22599C23.476 8.99699 22.803 8.84099 21.818 8.79599C20.83 8.74999 20.515 8.73999 18 8.73999ZM18 10.409C20.472 10.409 20.765 10.419 21.742 10.463C22.645 10.503 23.135 10.655 23.462 10.781C23.893 10.949 24.202 11.15 24.526 11.474C24.85 11.798 25.051 12.107 25.219 12.539C25.345 12.865 25.496 13.355 25.537 14.259C25.582 15.235 25.591 15.528 25.591 18C25.591 20.473 25.582 20.765 25.537 21.742C25.497 22.645 25.345 23.135 25.219 23.462C25.051 23.893 24.849 24.202 24.526 24.526C24.202 24.85 23.893 25.051 23.461 25.219C23.135 25.345 22.645 25.496 21.741 25.537C20.766 25.582 20.473 25.591 18 25.591C15.527 25.591 15.234 25.582 14.258 25.537C13.355 25.497 12.865 25.345 12.538 25.219C12.107 25.051 11.798 24.849 11.474 24.526C11.15 24.202 10.949 23.893 10.781 23.461C10.655 23.135 10.504 22.645 10.463 21.741C10.418 20.765 10.409 20.473 10.409 18C10.409 15.528 10.418 15.235 10.463 14.258C10.503 13.355 10.655 12.865 10.781 12.538C10.949 12.107 11.151 11.798 11.474 11.474C11.798 11.15 12.107 10.949 12.539 10.781C12.865 10.655 13.355 10.504 14.259 10.463C15.235 10.418 15.528 10.409 18 10.409Z" fill="#9BA1B4"/>
<path fill-rule="evenodd" clip-rule="evenodd" d="M18 21.087C16.295 21.087 14.913 19.705 14.913 18C14.913 16.295 16.295 14.913 18 14.913C19.705 14.913 21.087 16.295 21.087 18C21.087 19.705 19.705 21.087 18 21.087ZM18 13.245C15.374 13.245 13.245 15.374 13.245 18C13.245 20.626 15.374 22.755 18 22.755C20.626 22.755 22.755 20.626 22.755 18C22.755 15.374 20.626 13.245 18 13.245ZM24.054 13.057C24.054 13.671 23.557 14.168 22.943 14.168C22.329 14.168 21.832 13.671 21.832 13.058C21.832 12.443 22.329 11.946 22.942 11.946C23.557 11.946 24.054 12.443 24.054 13.057Z" fill="#9BA1B4"/>
</g>
</svg>
