<svg width="24" height="24" viewBox="0 0 24 24" fill="none" xmlns="http://www.w3.org/2000/svg">
<path d="M18.7604 16.2694H18.7194V11.0873C18.7194 7.92542 16.428 5.27419 13.4249 4.70663V4.19861C13.4249 3.53845 12.8851 3 12.2262 3C11.5674 3 11.0276 3.53977 11.0276 4.19861V4.70663C8.02316 5.27551 5.73177 7.92675 5.73177 11.0886V16.2707H5.69076C4.75674 16.2707 4 17.0275 4 17.9615C4 18.8955 4.75674 19.6522 5.69076 19.6522H18.7591C19.6931 19.6522 20.4498 18.8955 20.4498 17.9615C20.4498 17.0275 19.6931 16.2707 18.7591 16.2707L18.7604 16.2694Z" fill="#F9FAFB"/>
<path d="M13.4897 19.6522H10.9602C10.8001 19.6522 10.6863 19.8242 10.7524 19.9763C11.0117 20.5651 11.5833 20.9606 12.2249 20.9606C12.8666 20.9606 13.4381 20.5651 13.6974 19.9763C13.7649 19.8242 13.6511 19.6522 13.4897 19.6522Z" fill="#F9FAFB"/>
</svg>
