<svg width="24" height="24" viewBox="0 0 24 24" fill="none" xmlns="http://www.w3.org/2000/svg">
<path d="M18.7604 16.2694H18.7194V11.0873C18.7194 7.92542 16.428 5.27419 13.4249 4.70663V4.19861C13.4249 3.53845 12.8851 3 12.2262 3C11.5674 3 11.0276 3.53977 11.0276 4.19861V4.70663C8.02316 5.27551 5.73177 7.92675 5.73177 11.0886V16.2707H5.69076C4.75674 16.2707 4 17.0275 4 17.9615C4 18.8955 4.75674 19.6522 5.69076 19.6522H18.7591C19.6931 19.6522 20.4498 18.8955 20.4498 17.9615C20.4498 17.0275 19.6931 16.2707 18.7591 16.2707L18.7604 16.2694Z" fill="#F9FAFB"/>
<path d="M13.4897 19.6522H10.9602C10.8001 19.6522 10.6863 19.8242 10.7524 19.9763C11.0117 20.5651 11.5833 20.9606 12.2249 20.9606C12.8666 20.9606 13.4381 20.5651 13.6974 19.9763C13.7649 19.8242 13.6511 19.6522 13.4897 19.6522Z" fill="#F9FAFB"/>
<rect x="15" y="4" width="7" height="7" rx="3.5" fill="#A39CFF"/>
<path d="M17.5605 8.6875L18.541 7.69922C18.6595 7.57682 18.75 7.47786 18.8125 7.40234C18.875 7.32552 18.9225 7.2513 18.9551 7.17969C18.9889 7.10677 19.0059 7.02995 19.0059 6.94922C19.0059 6.85807 18.9831 6.77799 18.9375 6.70898C18.8919 6.63997 18.8294 6.58659 18.75 6.54883C18.6706 6.51107 18.5814 6.49219 18.4824 6.49219C18.3783 6.49219 18.2871 6.51302 18.209 6.55469C18.1322 6.59635 18.0723 6.65495 18.0293 6.73047C17.9876 6.80469 17.9668 6.89193 17.9668 6.99219H17.5605C17.5592 6.82292 17.5983 6.67318 17.6777 6.54297C17.7572 6.41276 17.8678 6.31185 18.0098 6.24023C18.1517 6.16862 18.3118 6.13281 18.4902 6.13281C18.6686 6.13281 18.8275 6.16797 18.9668 6.23828C19.1074 6.30729 19.2168 6.40299 19.2949 6.52539C19.3743 6.64779 19.4147 6.78516 19.416 6.9375C19.4147 7.04557 19.3939 7.14974 19.3535 7.25C19.3132 7.34896 19.2441 7.45964 19.1465 7.58203C19.0488 7.70312 18.9108 7.85156 18.7324 8.02734L18.1582 8.60938V8.63281H19.4629V9H17.5605V8.6875Z" fill="white"/>
</svg>
