<svg width="16" height="16" viewBox="0 0 16 16" fill="none" xmlns="http://www.w3.org/2000/svg">
<path d="M8.01325 9.62659C9.02913 9.62659 9.85267 8.80306 9.85267 7.78717C9.85267 6.77129 9.02913 5.94775 8.01325 5.94775C6.99736 5.94775 6.17383 6.77129 6.17383 7.78717C6.17383 8.80306 6.99736 9.62659 8.01325 9.62659Z" stroke="#9BA1B4" stroke-miterlimit="10" stroke-linecap="round" stroke-linejoin="round"/>
<path d="M2 8.32693V7.2478C2 6.61014 2.52117 6.08284 3.16497 6.08284C4.27475 6.08284 4.72847 5.29802 4.17051 4.33539C3.85168 3.78356 4.04175 3.06619 4.59971 2.74736L5.66044 2.14035C6.14482 1.85217 6.77023 2.02385 7.0584 2.50823L7.12585 2.62473C7.67767 3.58736 8.58512 3.58736 9.14308 2.62473L9.21052 2.50823C9.4987 2.02385 10.1241 1.85217 10.6085 2.14035L11.6692 2.74736C12.2272 3.06619 12.4172 3.78356 12.0984 4.33539C11.5405 5.29802 11.9942 6.08284 13.104 6.08284C13.7416 6.08284 14.2689 6.604 14.2689 7.2478V8.32693C14.2689 8.96459 13.7478 9.49189 13.104 9.49189C11.9942 9.49189 11.5405 10.2767 12.0984 11.2393C12.4172 11.7973 12.2272 12.5085 11.6692 12.8274L10.6085 13.4344C10.1241 13.7226 9.4987 13.5509 9.21052 13.0665L9.14308 12.95C8.59125 11.9874 7.6838 11.9874 7.12585 12.95L7.0584 13.0665C6.77023 13.5509 6.14482 13.7226 5.66044 13.4344L4.59971 12.8274C4.04175 12.5085 3.85168 11.7912 4.17051 11.2393C4.72847 10.2767 4.27475 9.49189 3.16497 9.49189C2.52117 9.49189 2 8.96459 2 8.32693Z" stroke="#9BA1B4" stroke-miterlimit="10" stroke-linecap="round" stroke-linejoin="round"/>
</svg>
